<?xml version="1.0" encoding="UTF-8"?>
<svg width="231px" height="204px" viewBox="0 0 231 204" version="1.1" xmlns="http://www.w3.org/2000/svg" xmlns:xlink="http://www.w3.org/1999/xlink">
    <!-- Generator: Sketch 45.2 (43514) - http://www.bohemiancoding.com/sketch -->
    <title>domicilios</title>
    <desc>Created with Sketch.</desc>
    <defs>
        <polygon id="path-1" points="0 204 230.998 204 230.998 0.567 0 0.567"></polygon>
        <path d="M6.14416693,0.5021 C3.71622507,0.85540233 1.57302664,2.08637118 0.0468,3.8626807 L0.0468,40.405 L20.344,40.405 L20.344,10.335 C20.344,5.33729961 16.6544395,1.20124304 11.8498331,0.5021 L6.14416693,0.5021 L6.14416693,0.5021 Z" id="path-3"></path>
        <path d="M0.802490701,4.78133378 C1.13590371,2.78797063 2.38700023,1.23497296 3.9856849,0.570730379 L8.00910119,0.570730379 L26.218,4.047 C28.223,4.429 29.57,6.548 29.226,8.777 L27.354,20.897 C26.188,28.445 19.74,33.513 12.951,32.218 L9.301,31.52 C5.62952061,30.8198448 2.61175667,28.3978865 0.802490701,25.1271994 L0.802490701,4.78133378 L0.802490701,4.78133378 Z" id="path-5"></path>
        <path d="M32.9923,4.99743501 L10.675,0.738 C10.192,0.646 9.713,0.602 9.24,0.602 C5.213,0.602 1.651,3.822 0.947,8.383 L0.758,9.607 L18.8839638,13.0670272 L29.569457,13.0670272 C31.129669,12.0582537 32.3664175,10.4541084 32.9923,8.48050102 L32.9923,4.99743501 L32.9923,4.99743501 Z" id="path-7"></path>
    </defs>
    <g id="Page-1" stroke="none" stroke-width="1" fill="none" fill-rule="evenodd">
        <g id="Desktop" transform="translate(-256.000000, -1167.000000)">
            <g id="domicilios" transform="translate(256.000000, 1166.000000)">
                <g id="Group-128" transform="translate(0.000000, 0.433000)">
                    <path d="M214.2406,102.2836 C214.2406,158.4596 168.7006,203.9996 112.5246,203.9996 C56.3476,203.9996 10.8076,158.4596 10.8076,102.2836 C10.8076,46.1076 56.3476,0.5676 112.5246,0.5676 C168.7006,0.5676 214.2406,46.1076 214.2406,102.2836 Z" id="Fill-1" fill="#F6F6F7"></path>
                    <mask id="mask-2" fill="white">
                        <use xlink:href="#path-1"></use>
                    </mask>
                    <g id="Clip-4"></g>
                    <polygon id="Fill-3" fill="#B5B6B6" mask="url(#mask-2)" points="96.328 138.962 123.203 138.962 123.203 133.12 96.328 133.12"></polygon>
                    <polygon id="Stroke-5" stroke="#424444" stroke-linecap="round" stroke-linejoin="round" mask="url(#mask-2)" points="96.328 138.962 123.203 138.962 123.203 133.12 96.328 133.12"></polygon>
                    <polygon id="Fill-6" fill="#DBDADA" mask="url(#mask-2)" points="119.698 126.1091 99.834 126.1091 96.328 133.1201 123.203 133.1201"></polygon>
                    <polygon id="Stroke-7" stroke="#424444" stroke-linecap="round" stroke-linejoin="round" mask="url(#mask-2)" points="119.698 126.1091 99.834 126.1091 96.328 133.1201 123.203 133.1201"></polygon>
                    <polyline id="Stroke-8" stroke="#424444" stroke-linecap="round" stroke-linejoin="round" mask="url(#mask-2)" points="112.6872 135.4569 112.6872 136.6249 105.6762 136.6249 105.6762 135.4569"></polyline>
                    <polygon id="Fill-9" fill="#424444" mask="url(#mask-2)" points="103.924 131.367 105.092 131.367 105.092 130.199 103.924 130.199"></polygon>
                    <polygon id="Stroke-10" stroke="#424444" stroke-width="0.5" mask="url(#mask-2)" points="103.924 131.367 105.092 131.367 105.092 130.199 103.924 130.199"></polygon>
                    <polygon id="Fill-11" fill="#424444" mask="url(#mask-2)" points="100.419 131.367 101.587 131.367 101.587 130.199 100.419 130.199"></polygon>
                    <polygon id="Stroke-12" stroke="#424444" stroke-width="0.5" mask="url(#mask-2)" points="100.419 131.367 101.587 131.367 101.587 130.199 100.419 130.199"></polygon>
                    <polygon id="Fill-13" fill="#424444" mask="url(#mask-2)" points="107.43 131.367 108.598 131.367 108.598 130.199 107.43 130.199"></polygon>
                    <polygon id="Stroke-14" stroke="#424444" stroke-width="0.5" mask="url(#mask-2)" points="107.43 131.367 108.598 131.367 108.598 130.199 107.43 130.199"></polygon>
                    <polygon id="Fill-15" fill="#424444" mask="url(#mask-2)" points="110.935 131.367 112.103 131.367 112.103 130.199 110.935 130.199"></polygon>
                    <polygon id="Stroke-16" stroke="#424444" stroke-width="0.5" mask="url(#mask-2)" points="110.935 131.367 112.103 131.367 112.103 130.199 110.935 130.199"></polygon>
                    <polygon id="Fill-17" fill="#424444" mask="url(#mask-2)" points="114.44 131.367 115.608 131.367 115.608 130.199 114.44 130.199"></polygon>
                    <polygon id="Stroke-18" stroke="#424444" stroke-width="0.5" mask="url(#mask-2)" points="114.44 131.367 115.608 131.367 115.608 130.199 114.44 130.199"></polygon>
                    <polygon id="Fill-19" fill="#424444" mask="url(#mask-2)" points="117.946 131.367 119.114 131.367 119.114 130.199 117.946 130.199"></polygon>
                    <polygon id="Stroke-20" stroke="#424444" stroke-width="0.5" mask="url(#mask-2)" points="117.946 131.367 119.114 131.367 119.114 130.199 117.946 130.199"></polygon>
                    <polygon id="Fill-21" fill="#424444" mask="url(#mask-2)" points="114.44 129.03 115.608 129.03 115.608 127.862 114.44 127.862"></polygon>
                    <polygon id="Stroke-22" stroke="#424444" stroke-width="0.5" mask="url(#mask-2)" points="114.44 129.03 115.608 129.03 115.608 127.862 114.44 127.862"></polygon>
                    <polygon id="Fill-23" fill="#424444" mask="url(#mask-2)" points="110.935 129.03 112.103 129.03 112.103 127.862 110.935 127.862"></polygon>
                    <polygon id="Stroke-24" stroke="#424444" stroke-width="0.5" mask="url(#mask-2)" points="110.935 129.03 112.103 129.03 112.103 127.862 110.935 127.862"></polygon>
                    <polygon id="Fill-25" fill="#424444" mask="url(#mask-2)" points="107.43 129.03 108.598 129.03 108.598 127.862 107.43 127.862"></polygon>
                    <polygon id="Stroke-26" stroke="#424444" stroke-width="0.5" mask="url(#mask-2)" points="107.43 129.03 108.598 129.03 108.598 127.862 107.43 127.862"></polygon>
                    <polygon id="Fill-27" fill="#424444" mask="url(#mask-2)" points="103.924 129.03 105.092 129.03 105.092 127.862 103.924 127.862"></polygon>
                    <polygon id="Stroke-28" stroke="#424444" stroke-width="0.5" mask="url(#mask-2)" points="103.924 129.03 105.092 129.03 105.092 127.862 103.924 127.862"></polygon>
                    <polygon id="Fill-29" fill="#DBDADA" mask="url(#mask-2)" points="99.834 126.109 119.698 126.109 119.698 119.098 99.834 119.098"></polygon>
                    <polygon id="Stroke-30" stroke="#424444" stroke-linecap="round" stroke-linejoin="round" mask="url(#mask-2)" points="99.834 126.109 119.698 126.109 119.698 119.098 99.834 119.098"></polygon>
                    <polygon id="Stroke-31" stroke="#424444" stroke-linecap="round" stroke-linejoin="round" mask="url(#mask-2)" points="102.171 123.772 108.598 123.772 108.598 121.435 102.171 121.435"></polygon>
                    <path d="M112.1029,122.6036 L117.3609,122.6036" id="Stroke-32" stroke="#424444" stroke-linecap="round" stroke-linejoin="round" mask="url(#mask-2)"></path>
                    <polygon id="Fill-33" fill="#B5B6B6" mask="url(#mask-2)" points="106.8448 114.4243 102.1708 115.5923 102.1708 119.0983 106.8448 119.0983"></polygon>
                    <polygon id="Stroke-34" stroke="#424444" stroke-linecap="round" stroke-linejoin="round" mask="url(#mask-2)" points="106.8448 114.4243 102.1708 115.5923 102.1708 119.0983 106.8448 119.0983"></polygon>
                    <path d="M119.698,114.4243 C119.698,115.0673 119.173,115.5923 118.53,115.5923 L113.856,115.5923 C113.213,115.5923 112.687,115.0673 112.687,114.4243 L112.687,113.2563 C112.687,112.6143 113.213,112.0873 113.856,112.0873 L118.53,112.0873 C119.173,112.0873 119.698,112.6143 119.698,113.2563 L119.698,114.4243 Z" id="Fill-35" fill="#696B6A" mask="url(#mask-2)"></path>
                    <path d="M119.698,114.4243 C119.698,115.0673 119.173,115.5923 118.53,115.5923 L113.856,115.5923 C113.213,115.5923 112.687,115.0673 112.687,114.4243 L112.687,113.2563 C112.687,112.6143 113.213,112.0873 113.856,112.0873 L118.53,112.0873 C119.173,112.0873 119.698,112.6143 119.698,113.2563 L119.698,114.4243 Z" id="Stroke-36" stroke="#424444" stroke-linecap="round" stroke-linejoin="round" mask="url(#mask-2)"></path>
                    <path d="M116.1926,115.5928 L116.1926,119.0978" id="Stroke-37" stroke="#424444" stroke-linecap="round" stroke-linejoin="round" mask="url(#mask-2)"></path>
                    <g id="Group-41" mask="url(#mask-2)" stroke-linecap="round" stroke="#424444" opacity="0.2" stroke-linejoin="round">
                        <g transform="translate(156.000000, 67.000000)">
                            <polygon id="Stroke-38" points="0.963 32.737 37.533 32.737 37.533 6.923 0.963 6.923"></polygon>
                            <path d="M25.3701,6.3287 L19.2861,0.2447" id="Stroke-39"></path>
                            <path d="M13.3965,6.3287 L19.4805,0.2447" id="Stroke-40"></path>
                        </g>
                    </g>
                    <g id="Group-54" mask="url(#mask-2)" opacity="0.2">
                        <g transform="translate(168.000000, 79.000000)">
                            <path d="M6.5849,14.3454 L4.7899,16.1404 C4.2269,16.7044 3.3139,16.7044 2.7509,16.1404 L2.4949,15.8854 C0.9099,14.3004 0.3159,12.0984 0.7149,10.0514" id="Stroke-42" stroke="#020303" stroke-width="1" fill="none" stroke-linecap="round" stroke-linejoin="round"></path>
                            <path d="M10.9262,2.1203 C10.9262,1.6593 10.7502,1.1983 10.3982,0.8453 C9.6942,0.1413 8.5532,0.1413 7.8492,0.8453 C7.8402,0.8543 7.8342,0.8643 7.8262,0.8733 C7.1262,0.4073 6.1732,0.4833 5.5552,1.1003 C5.2282,1.4273 5.0602,1.8483 5.0362,2.2753 C4.3702,1.9663 3.5552,2.0803 3.0052,2.6303 C2.4562,3.1803 2.3412,3.9953 2.6502,4.6603 C2.2232,4.6853 1.8022,4.8533 1.4752,5.1793 C0.8482,5.8073 0.7832,6.7803 1.2762,7.4833 C1.1662,7.5533 1.0622,7.6323 0.9662,7.7283 C0.2612,8.4323 0.2612,9.5743 0.9662,10.2783 C1.0852,10.3973 1.2212,10.4893 1.3622,10.5683 C1.0682,11.2293 1.1882,12.0293 1.7312,12.5713 C2.0982,12.9393 2.5842,13.1093 3.0662,13.0933 C2.8912,13.7033 3.0352,14.3853 3.5152,14.8663 C4.2202,15.5703 5.3612,15.5703 6.0652,14.8663" id="Stroke-43" stroke="#020303" stroke-width="1" fill="none" stroke-linecap="round" stroke-linejoin="round"></path>
                            <path d="M5.2993,13.0821 C2.6643,10.4471 2.7693,6.1081 5.6153,3.6081 C8.2123,1.3281 12.1903,1.6171 14.6343,4.0621 L14.7323,4.1591 C15.2953,4.7221 15.2953,5.6361 14.7323,6.1991 L6.5753,14.3571 L5.2993,13.0821 Z" id="Stroke-44" stroke="#020303" stroke-width="1" fill="none" stroke-linecap="round" stroke-linejoin="round"></path>
                            <path d="M12.3351,4.2834 C12.2431,4.2834 12.1511,4.3184 12.0801,4.3884 C11.9391,4.5294 11.9391,4.7574 12.0801,4.8984 C12.1501,4.9694 12.2431,5.0044 12.3351,5.0044 C12.4271,5.0044 12.5201,4.9694 12.5901,4.8994 C12.7321,4.7584 12.7311,4.5304 12.5901,4.3894 C12.5201,4.3184 12.4271,4.2834 12.3351,4.2834" id="Fill-45" stroke="none" fill="#020303" fill-rule="evenodd"></path>
                            <path d="M9.451,4.2834 C9.359,4.2834 9.266,4.3184 9.196,4.3884 C9.055,4.5294 9.054,4.7574 9.196,4.8984 C9.266,4.9694 9.359,5.0044 9.451,5.0044 C9.543,5.0044 9.636,4.9694 9.706,4.8994 C9.847,4.7584 9.847,4.5304 9.706,4.3894 C9.635,4.3184 9.543,4.2834 9.451,4.2834" id="Fill-46" stroke="none" fill="#020303" fill-rule="evenodd"></path>
                            <path d="M9.451,7.1675 C9.359,7.1675 9.266,7.2025 9.196,7.2725 C9.055,7.4135 9.054,7.6415 9.196,7.7825 C9.266,7.8535 9.359,7.8885 9.451,7.8885 C9.543,7.8885 9.636,7.8535 9.706,7.7835 C9.847,7.6425 9.847,7.4145 9.706,7.2735 C9.635,7.2025 9.543,7.1675 9.451,7.1675" id="Fill-47" stroke="none" fill="#020303" fill-rule="evenodd"></path>
                            <path d="M10.8931,5.7254 C10.8011,5.7254 10.7081,5.7604 10.6381,5.8304 C10.4971,5.9714 10.4961,6.1994 10.6381,6.3404 C10.7081,6.4114 10.8011,6.4464 10.8931,6.4464 C10.9851,6.4464 11.0781,6.4114 11.1481,6.3414 C11.2891,6.2004 11.2891,5.9724 11.1481,5.8314 C11.0781,5.7604 10.9851,5.7254 10.8931,5.7254" id="Fill-48" stroke="none" fill="#020303" fill-rule="evenodd"></path>
                            <path d="M6.5668,4.2834 C6.4748,4.2834 6.3828,4.3184 6.3118,4.3884 C6.1708,4.5294 6.1708,4.7574 6.3118,4.8984 C6.3818,4.9694 6.4748,5.0044 6.5668,5.0044 C6.6588,5.0044 6.7518,4.9694 6.8218,4.8994 C6.9638,4.7584 6.9628,4.5304 6.8218,4.3894 C6.7518,4.3184 6.6588,4.2834 6.5668,4.2834" id="Fill-49" stroke="none" fill="#020303" fill-rule="evenodd"></path>
                            <path d="M6.5668,7.1675 C6.4748,7.1675 6.3828,7.2025 6.3118,7.2725 C6.1708,7.4135 6.1708,7.6415 6.3118,7.7825 C6.3818,7.8535 6.4748,7.8885 6.5668,7.8885 C6.6588,7.8885 6.7518,7.8535 6.8218,7.7835 C6.9638,7.6425 6.9628,7.4145 6.8218,7.2735 C6.7518,7.2025 6.6588,7.1675 6.5668,7.1675" id="Fill-50" stroke="none" fill="#020303" fill-rule="evenodd"></path>
                            <path d="M8.0089,5.7254 C7.9169,5.7254 7.8249,5.7604 7.7539,5.8304 C7.6129,5.9714 7.6129,6.1994 7.7539,6.3404 C7.8239,6.4114 7.9169,6.4464 8.0089,6.4464 C8.1009,6.4464 8.1939,6.4114 8.2639,6.3414 C8.4059,6.2004 8.4049,5.9724 8.2639,5.8314 C8.1939,5.7604 8.1009,5.7254 8.0089,5.7254" id="Fill-51" stroke="none" fill="#020303" fill-rule="evenodd"></path>
                            <path d="M6.5668,10.0516 C6.4748,10.0516 6.3818,10.0866 6.3118,10.1566 C6.1708,10.2976 6.1698,10.5256 6.3118,10.6666 C6.3818,10.7376 6.4748,10.7726 6.5668,10.7726 C6.6588,10.7726 6.7518,10.7376 6.8218,10.6676 C6.9628,10.5266 6.9628,10.2986 6.8218,10.1576 C6.7508,10.0866 6.6588,10.0516 6.5668,10.0516" id="Fill-52" stroke="none" fill="#020303" fill-rule="evenodd"></path>
                            <path d="M8.0089,8.6096 C7.9169,8.6096 7.8239,8.6446 7.7539,8.7146 C7.6129,8.8556 7.6119,9.0836 7.7539,9.2246 C7.8239,9.2956 7.9169,9.3306 8.0089,9.3306 C8.1009,9.3306 8.1939,9.2956 8.2639,9.2256 C8.4049,9.0846 8.4049,8.8566 8.2639,8.7156 C8.1939,8.6446 8.1009,8.6096 8.0089,8.6096" id="Fill-53" stroke="none" fill="#020303" fill-rule="evenodd"></path>
                        </g>
                    </g>
                    <g id="Group-60" mask="url(#mask-2)" stroke-linecap="round" stroke="#424444" opacity="0.2" stroke-linejoin="round">
                        <g transform="translate(48.000000, 17.000000)">
                            <polygon id="Stroke-55" points="116.9908 0.013 11.6688 0.013 0.5828 19.376 128.0778 19.376"></polygon>
                            <path d="M128.0773,24.2162 C128.0773,35.3592 112.7783,44.6822 100.3613,33.8972 C92.3013,45.0792 74.5403,47.1122 64.3303,36.9952 C54.0083,47.2432 36.2533,44.9242 28.2993,33.8972 C16.0263,44.5762 0.5823,35.4802 0.5823,24.2162 L0.5823,19.3752 L128.0773,19.3752 L128.0773,24.2162 Z" id="Stroke-56"></path>
                            <polyline id="Stroke-57" points="28.2988 33.8975 28.2988 19.3755 33.8418 0.0125"></polyline>
                            <polyline id="Stroke-58" points="64.3299 37.0246 64.3299 19.3756 64.3299 0.0126"></polyline>
                            <polyline id="Stroke-59" points="100.3611 33.8975 100.3611 19.3755 94.8181 0.0125"></polyline>
                        </g>
                    </g>
                    <path d="M87.5368,139.7942 L169.0368,139.7942" id="Stroke-61" stroke="#424444" stroke-linecap="round" stroke-linejoin="round" mask="url(#mask-2)"></path>
                    <polygon id="Fill-62" fill="#F27672" mask="url(#mask-2)" points="142.799 138.98 161.688 138.98 161.688 120.235 142.799 120.235"></polygon>
                    <polygon id="Stroke-63" stroke="#424444" stroke-linecap="round" stroke-linejoin="round" mask="url(#mask-2)" points="142.799 138.98 161.688 138.98 161.688 120.235 142.799 120.235"></polygon>
                    <path d="M147.7695,119.7504 L147.7695,117.8754 C147.7695,114.7704 149.7725,112.2524 152.2435,112.2524 C154.7145,112.2524 156.7175,114.7704 156.7175,117.8754 L156.7175,119.7504" id="Stroke-64" stroke="#424444" stroke-linecap="round" stroke-linejoin="round" mask="url(#mask-2)"></path>
                    <polygon id="Fill-65" fill="#F48F8E" mask="url(#mask-2)" points="129.4291 131.4158 130.5151 138.9398 135.9451 138.9398 137.1861 131.4158"></polygon>
                    <polyline id="Stroke-66" stroke="#424444" stroke-linecap="round" stroke-linejoin="round" mask="url(#mask-2)" points="137.7901 129.0976 136.2881 138.8626 130.2791 138.8626 128.7761 129.0976"></polyline>
                    <path d="M131.4056,137.7356 L134.7856,122.6586 C134.7856,122.4146 134.9046,122.1846 135.1066,122.0436 C135.3066,121.9036 135.5626,121.8706 135.7936,121.9536 L138.9166,123.0886" id="Stroke-67" stroke="#424444" stroke-linecap="round" stroke-linejoin="round" mask="url(#mask-2)"></path>
                    <path d="M126.8988,129.0976 L139.6678,129.0976" id="Stroke-68" stroke="#424444" stroke-linecap="round" stroke-linejoin="round" mask="url(#mask-2)"></path>
                    <path d="M128.7766,129.0976 C128.7766,126.6096 130.7946,124.5906 133.2836,124.5906 C135.7716,124.5906 137.7906,126.6096 137.7906,129.0976 L128.7766,129.0976 Z" id="Stroke-69" stroke="#424444" stroke-linecap="round" stroke-linejoin="round" mask="url(#mask-2)"></path>
                    <g id="Group-77" mask="url(#mask-2)" stroke-linecap="round" stroke="#424444" opacity="0.2" stroke-linejoin="round">
                        <g transform="translate(172.000000, 117.000000)">
                            <polyline id="Stroke-70" points="0.7035 0.1454 4.6445 28.2354 19.0925 28.2354 19.0925 51.3674"></polyline>
                            <path d="M4.644,28.2349 L0.703,51.3679" id="Stroke-71"></path>
                            <polyline id="Stroke-72" points="58.4977 0.1454 54.5567 28.2354 40.1087 28.2354 40.1087 51.3674"></polyline>
                            <path d="M54.5572,28.2349 L58.4982,51.3679" id="Stroke-73"></path>
                            <path d="M29.6006,49.7152 L29.6006,18.3212" id="Stroke-74"></path>
                            <path d="M13.8385,18.321 L45.3625,18.321" id="Stroke-75"></path>
                            <path d="M24.3466,51.3675 L34.8546,51.3675" id="Stroke-76"></path>
                        </g>
                    </g>
                    <g id="Group-87" mask="url(#mask-2)" stroke-linecap="round" stroke="#424444" opacity="0.2" stroke-linejoin="round">
                        <g transform="translate(195.000000, 122.000000)">
                            <path d="M6.1693,12.4446 L0.7933,12.4446 C0.7933,10.5146 1.3313,7.0686 3.4813,7.0686 C5.6313,7.0686 6.1693,10.5146 6.1693,12.4446 Z" id="Stroke-78"></path>
                            <path d="M2.9439,7.8753 C2.7959,7.8753 2.6749,7.9953 2.6749,8.1443 C2.6749,8.2923 2.7959,8.4133 2.9439,8.4133 C3.0919,8.4133 3.2129,8.2923 3.2129,8.1443 C3.2129,7.9953 3.0919,7.8753 2.9439,7.8753 Z" id="Stroke-79"></path>
                            <path d="M4.019,7.8753 C3.871,7.8753 3.75,7.9953 3.75,8.1443 C3.75,8.2923 3.871,8.4133 4.019,8.4133 C4.167,8.4133 4.288,8.2923 4.288,8.1443 C4.288,7.9953 4.167,7.8753 4.019,7.8753 Z" id="Stroke-80"></path>
                            <path d="M12.6201,8.1441 C12.6201,7.6061 12.0821,7.0691 11.5451,7.0691 L8.3191,7.0691 C7.7821,7.0691 7.2441,7.6061 7.2441,8.1441 L7.2441,12.4451 L12.6201,12.4451 L12.6201,8.1441 Z" id="Stroke-81"></path>
                            <polygon id="Stroke-82" points="8.32 7.069 11.545 7.069 11.545 4.381 8.32 4.381"></polygon>
                            <path d="M12.0825,2.7684 L7.7815,2.7684 L7.7815,3.8434 C7.7815,4.1124 8.0505,4.3814 8.3195,4.3814 L11.5445,4.3814 C11.8135,4.3814 12.0825,4.1124 12.0825,3.8434 L12.0825,2.7684 Z" id="Stroke-83"></path>
                            <path d="M13.1577,1.962 C13.1577,1.519 12.7947,1.156 12.3517,1.156 L7.5137,1.156 C7.0697,1.156 6.7067,1.519 6.7067,1.962 C6.7067,2.405 7.0697,2.768 7.5137,2.768 L12.3517,2.768 C12.7947,2.768 13.1577,2.405 13.1577,1.962 Z" id="Stroke-84"></path>
                            <path d="M9.9323,1.1557 L9.9323,0.0807" id="Stroke-85"></path>
                            <path d="M9.3947,0.0805 L10.4697,0.0805" id="Stroke-86"></path>
                        </g>
                    </g>
                    <path d="M129.1803,81.0076 L117.1833,81.0076 C116.5823,81.0076 116.0953,80.5206 116.0953,79.9206 L116.0953,74.7036 C116.0953,74.1026 116.5823,73.6156 117.1833,73.6156 L129.1803,73.6156 C129.7813,73.6156 130.2673,74.1026 130.2673,74.7036 L130.2673,79.9206 C130.2673,80.5206 129.7813,81.0076 129.1803,81.0076 Z" id="Stroke-88" stroke="#424444" opacity="0.2" stroke-linecap="round" stroke-linejoin="round" mask="url(#mask-2)"></path>
                    <path d="M138.43,90.8626 L126.433,90.8626 C125.832,90.8626 125.345,90.3756 125.345,89.7756 L125.345,84.5576 C125.345,83.9576 125.832,83.4706 126.433,83.4706 L138.43,83.4706 C139.031,83.4706 139.517,83.9576 139.517,84.5576 L139.517,89.7756 C139.517,90.3756 139.031,90.8626 138.43,90.8626 Z" id="Stroke-89" stroke="#424444" opacity="0.2" stroke-linecap="round" stroke-linejoin="round" mask="url(#mask-2)"></path>
                    <path d="M27.6239,61.4898 L12.3999,61.4898 C11.7989,61.4898 11.3119,61.0028 11.3119,60.4028 L11.3119,55.1858 C11.3119,54.5848 11.7989,54.0978 12.3999,54.0978 L27.6239,54.0978 C28.2249,54.0978 28.7109,54.5848 28.7109,55.1858 L28.7109,60.4028 C28.7109,61.0028 28.2249,61.4898 27.6239,61.4898 Z" id="Stroke-90" stroke="#424444" opacity="0.2" stroke-linecap="round" stroke-linejoin="round" mask="url(#mask-2)"></path>
                    <path d="M12.417,100.9121 L1.587,100.9121 C0.987,100.9121 0.5,100.4251 0.5,99.8251 L0.5,94.6081 C0.5,94.0071 0.987,93.5201 1.587,93.5201 L12.417,93.5201 C13.018,93.5201 13.504,94.0071 13.504,94.6081 L13.504,99.8251 C13.504,100.4251 13.018,100.9121 12.417,100.9121 Z" id="Stroke-91" stroke="#424444" opacity="0.2" stroke-linecap="round" stroke-linejoin="round" mask="url(#mask-2)"></path>
                    <path d="M202.7952,56.9986 L191.3842,56.9986 C190.7832,56.9986 190.2962,56.5116 190.2962,55.9116 L190.2962,50.6936 C190.2962,50.0936 190.7832,49.6066 191.3842,49.6066 L202.7952,49.6066 C203.3962,49.6066 203.8822,50.0936 203.8822,50.6936 L203.8822,55.9116 C203.8822,56.5116 203.3962,56.9986 202.7952,56.9986 Z" id="Stroke-92" stroke="#424444" opacity="0.2" stroke-linecap="round" stroke-linejoin="round" mask="url(#mask-2)"></path>
                    <path d="M210.53,66.7294 L199.119,66.7294 C198.518,66.7294 198.031,66.2424 198.031,65.6424 L198.031,60.4254 C198.031,59.8244 198.518,59.3374 199.119,59.3374 L210.53,59.3374 C211.131,59.3374 211.617,59.8244 211.617,60.4254 L211.617,65.6424 C211.617,66.2424 211.131,66.7294 210.53,66.7294 Z" id="Stroke-93" stroke="#424444" opacity="0.2" stroke-linecap="round" stroke-linejoin="round" mask="url(#mask-2)"></path>
                    <g id="Group-100" mask="url(#mask-2)" stroke-linecap="round" stroke="#424444" stroke-linejoin="round">
                        <g transform="translate(26.000000, 72.000000)">
                            <path d="M0.1033,6.7489 C0.1033,3.0859 3.0763,0.1129 6.7393,0.1129 L49.8713,0.1129 C53.5343,0.1129 56.5073,3.0859 56.5073,6.7489 L56.5073,66.4709 C56.5073,70.1339 53.5343,73.1069 49.8713,73.1069 L6.7393,73.1069 C3.0763,73.1069 0.1033,70.1339 0.1033,66.4709 L0.1033,6.7489 Z" id="Stroke-94" opacity="0.2"></path>
                            <path d="M10.057,78.0837 L10.057,73.1067" id="Stroke-95" opacity="0.2"></path>
                            <path d="M46.5539,78.0837 L46.5539,73.1067" id="Stroke-96"></path>
                            <path d="M0.1033,26.6562 L56.5073,26.6562" id="Stroke-97" opacity="0.2"></path>
                            <path d="M10.057,8.4078 L10.057,18.3618" id="Stroke-98" opacity="0.2"></path>
                            <path d="M10.057,31.6331 L10.057,51.5401" id="Stroke-99" opacity="0.2"></path>
                        </g>
                    </g>
                    <path d="M88.4079,115.8968 L82.0089,115.2268 C81.2359,115.1458 80.6749,114.4538 80.7559,113.6798 L81.9959,101.8388 C82.0769,101.0658 82.7689,100.5048 83.5419,100.5858 L89.9409,101.2568 C90.7139,101.3378 91.2749,102.0298 91.1939,102.8028 L89.9539,114.6438 C89.8729,115.4168 89.1809,115.9778 88.4079,115.8968" id="Fill-101" fill="#919CAD" mask="url(#mask-2)"></path>
                    <polygon id="Fill-102" fill="#123B66" mask="url(#mask-2)" points="71.238 185.565 78.063 185.565 78.063 137.787 71.238 137.787"></polygon>
                    <polygon id="Fill-103" fill="#074064" mask="url(#mask-2)" points="71.238 185.565 74.572 185.565 74.572 144.785 71.238 144.785"></polygon>
                    <polygon id="Fill-104" fill="#123B66" mask="url(#mask-2)" points="57.72 144.833 74.566 144.833 74.566 137.736 57.72 137.736"></polygon>
                    <path d="M78.8112,185.9862 L70.5552,185.9862 C70.2732,185.9862 70.0422,185.7552 70.0422,185.4742 L70.0422,185.3282 C70.0422,185.0472 70.2732,184.8162 70.5552,184.8162 L78.8112,184.8162 C79.0932,184.8162 79.3232,185.0472 79.3232,185.3282 L79.3232,185.4742 C79.3232,185.7552 79.0932,185.9862 78.8112,185.9862" id="Fill-105" fill="#434338" mask="url(#mask-2)"></path>
                    <path d="M82.9096,190.4057 L73.7096,190.4057 C72.8076,190.4057 72.0706,189.6677 72.0706,188.7667 L72.0706,186.6617 L82.9096,186.6617 C83.8116,186.6617 84.5486,187.3997 84.5486,188.3017 L84.5486,188.7667 C84.5486,189.6677 83.8116,190.4057 82.9096,190.4057" id="Fill-106" fill="#CFDECC" mask="url(#mask-2)"></path>
                    <path d="M83.9246,190.8217 L72.5386,190.8217 C72.3386,190.8217 72.1746,190.6577 72.1746,190.4577 L72.1746,190.3537 C72.1746,190.1537 72.3386,189.9897 72.5386,189.9897 L83.9246,189.9897 C84.1246,189.9897 84.2886,190.1537 84.2886,190.3537 L84.2886,190.4577 C84.2886,190.6577 84.1246,190.8217 83.9246,190.8217" id="Fill-107" fill="#18371B" mask="url(#mask-2)"></path>
                    <path d="M75.0562,188.2025 C75.0562,188.5145 74.8032,188.7675 74.4912,188.7675 C74.1782,188.7675 73.9252,188.5145 73.9252,188.2025 C73.9252,187.8905 74.1782,187.6375 74.4912,187.6375 C74.8032,187.6375 75.0562,187.8905 75.0562,188.2025" id="Fill-108" fill="#1F743A" mask="url(#mask-2)"></path>
                    <path d="M79.2757,189.0019 L79.2077,189.0019 C79.0767,189.0019 78.9687,188.8939 78.9687,188.7629 L78.9687,186.8489 C78.9687,186.7179 79.0767,186.6099 79.2077,186.6099 L79.2757,186.6099 C79.4067,186.6099 79.5147,186.7179 79.5147,186.8489 L79.5147,188.7629 C79.5147,188.8939 79.4067,189.0019 79.2757,189.0019" id="Fill-109" fill="#1F743A" mask="url(#mask-2)"></path>
                    <path d="M80.0203,189.0019 L79.9523,189.0019 C79.8213,189.0019 79.7133,188.8939 79.7133,188.7629 L79.7133,186.8489 C79.7133,186.7179 79.8213,186.6099 79.9523,186.6099 L80.0203,186.6099 C80.1513,186.6099 80.2593,186.7179 80.2593,186.8489 L80.2593,188.7629 C80.2593,188.8939 80.1513,189.0019 80.0203,189.0019" id="Fill-110" fill="#1F743A" mask="url(#mask-2)"></path>
                    <path d="M60.8337,190.3017 L58.4537,190.3017 C57.4357,190.3017 56.6017,189.4687 56.6017,188.4497 L56.6017,187.9247 C56.6017,186.9067 57.4357,186.0727 58.4537,186.0727 L60.8337,186.0727 C61.8517,186.0727 62.6857,186.9067 62.6857,187.9247 L62.6857,188.4497 C62.6857,189.4687 61.8517,190.3017 60.8337,190.3017" id="Fill-111" fill="#1F743A" mask="url(#mask-2)"></path>
                    <path d="M55.9262,191.5496 C55.9262,189.1376 57.6022,187.1826 59.6702,187.1826 C61.7372,187.1826 63.4132,189.1376 63.4132,191.5496" id="Fill-112" fill="#CFDECC" mask="url(#mask-2)"></path>
                    <path d="M63.53,192.1215 L55.732,192.1215 C55.531,192.1215 55.367,191.9575 55.367,191.7575 L55.367,191.6535 C55.367,191.4535 55.531,191.2895 55.732,191.2895 L63.53,191.2895 C63.73,191.2895 63.894,191.4535 63.894,191.6535 L63.894,191.7575 C63.894,191.9575 63.73,192.1215 63.53,192.1215" id="Fill-113" fill="#18371B" mask="url(#mask-2)"></path>
                    <polygon id="Fill-114" fill="#123B66" mask="url(#mask-2)" points="55.848 185.638 63.44 185.638 63.44 137.684 55.848 137.684"></polygon>
                    <polygon id="Fill-115" fill="#074064" mask="url(#mask-2)" points="55.849 185.638 58.376 185.638 58.376 137.684 55.849 137.684"></polygon>
                    <path d="M63.9929,185.9862 L55.7369,185.9862 C55.4549,185.9862 55.2239,185.7552 55.2239,185.4742 L55.2239,185.3282 C55.2239,185.0472 55.4549,184.8162 55.7369,184.8162 L63.9929,184.8162 C64.2749,184.8162 64.5049,185.0472 64.5049,185.3282 L64.5049,185.4742 C64.5049,185.7552 64.2749,185.9862 63.9929,185.9862" id="Fill-116" fill="#434338" mask="url(#mask-2)"></path>
                    <path d="M77.0094,186.8701 L72.3824,186.8701 C72.1824,186.8701 72.0184,186.7061 72.0184,186.5061 L72.0184,186.4021 C72.0184,186.2021 72.1824,186.0381 72.3824,186.0381 L77.0094,186.0381 C77.2094,186.0381 77.3734,186.2021 77.3734,186.4021 L77.3734,186.5061 C77.3734,186.7061 77.2094,186.8701 77.0094,186.8701" id="Fill-117" fill="#CFDECC" mask="url(#mask-2)"></path>
                    <path d="M77.5492,127.0452 L76.8232,127.0452 C75.4142,127.0452 74.2612,125.8922 74.2612,124.4842 L74.2612,104.9632 C74.2612,103.5542 75.4142,102.4022 76.8232,102.4022 L77.5492,102.4022 C78.9582,102.4022 80.1102,103.5542 80.1102,104.9632 L80.1102,124.4842 C80.1102,125.8922 78.9582,127.0452 77.5492,127.0452" id="Fill-118" fill="#D79292" mask="url(#mask-2)"></path>
                    <path d="M73.9871,109.5623 L73.9871,103.2613 C73.9871,101.1293 75.5201,99.3863 77.3941,99.3863 L77.3941,99.3863 C79.2681,99.3863 80.8011,101.1293 80.8011,103.2613 L80.8011,109.5623" id="Fill-119" fill="#44723F" mask="url(#mask-2)"></path>
                    <path d="M81.9707,110.6199 L74.3307,110.6199 C73.9547,110.6199 73.6477,110.3129 73.6477,109.9369 L73.6477,109.7429 C73.6477,109.3679 73.9547,109.0599 74.3307,109.0599 L81.9707,109.0599 C82.3467,109.0599 82.6537,109.3679 82.6537,109.7429 L82.6537,109.9369 C82.6537,110.3129 82.3467,110.6199 81.9707,110.6199" id="Fill-120" fill="#1E1240" mask="url(#mask-2)"></path>
                    <path d="M70.9395,132.4274 L70.7515,132.1534 C69.9555,130.9924 70.2535,129.3894 71.4155,128.5924 L94.5395,112.7324 C95.7015,111.9364 97.3035,112.2344 98.1005,113.3964 L98.2875,113.6704 C99.0845,114.8314 98.7865,116.4344 97.6245,117.2314 L74.5005,133.0914 C73.3385,133.8874 71.7365,133.5894 70.9395,132.4274" id="Fill-121" fill="#E7B6B5" mask="url(#mask-2)"></path>
                    <path d="M100.082,115.6594 L96.534,117.9254 C96.305,118.0714 95.998,118.0034 95.851,117.7744 L95.817,117.7204 C95.671,117.4914 95.738,117.1844 95.967,117.0374 L99.515,114.7724 C99.745,114.6254 100.052,114.6934 100.198,114.9224 L100.233,114.9764 C100.379,115.2054 100.311,115.5134 100.082,115.6594" id="Fill-122" fill="#E7B6B5" mask="url(#mask-2)"></path>
                    <path d="M100.2812,113.9966 L96.4332,116.4536 C96.1842,116.6126 95.8512,116.5396 95.6922,116.2906 L95.6552,116.2326 C95.4962,115.9836 95.5702,115.6506 95.8182,115.4916 L99.6662,113.0346 C99.9152,112.8756 100.2482,112.9486 100.4072,113.1976 L100.4442,113.2556 C100.6032,113.5046 100.5302,113.8376 100.2812,113.9966" id="Fill-123" fill="#E7B6B5" mask="url(#mask-2)"></path>
                    <path d="M100.9829,111.8725 L96.8009,114.5435 C96.5309,114.7155 96.1679,114.6355 95.9959,114.3655 L95.9549,114.3025 C95.7829,114.0315 95.8629,113.6695 96.1329,113.4975 L100.3149,110.8265 C100.5849,110.6535 100.9469,110.7335 101.1199,111.0045 L101.1609,111.0675 C101.3329,111.3375 101.2529,111.6995 100.9829,111.8725" id="Fill-124" fill="#E7B6B5" mask="url(#mask-2)"></path>
                    <path d="M98.8625,111.4349 L95.3375,113.6859 C95.1075,113.8329 94.8005,113.7649 94.6545,113.5359 L94.6195,113.4819 C94.4735,113.2529 94.5415,112.9449 94.7705,112.7989 L98.2955,110.5479 C98.5255,110.4009 98.8325,110.4689 98.9785,110.6979 L99.0135,110.7519 C99.1595,110.9809 99.0915,111.2889 98.8625,111.4349" id="Fill-125" fill="#E7B6B5" mask="url(#mask-2)"></path>
                    <path d="M93.3487,115.3709 L93.5517,111.1659 C93.5647,110.8949 93.7977,110.6829 94.0697,110.6959 L94.1337,110.6989 C94.4047,110.7129 94.6167,110.9449 94.6037,111.2169 L94.4007,115.4219 C94.3867,115.6929 94.1547,115.9049 93.8827,115.8919 L93.8187,115.8889 C93.5467,115.8759 93.3357,115.6429 93.3487,115.3709" id="Fill-126" fill="#E7B6B5" mask="url(#mask-2)"></path>
                    <path d="M78.3439,137.4051 L55.6499,137.4051 L55.6499,107.3361 C55.6499,101.8471 60.0989,97.3981 65.5879,97.3981 L68.4059,97.3981 C73.8949,97.3981 78.3439,101.8471 78.3439,107.3361 L78.3439,137.4051 Z" id="Fill-127" fill="#5D9755" mask="url(#mask-2)"></path>
                </g>
                <g id="Group-131" transform="translate(58.000000, 97.433000)">
                    <mask id="mask-4" fill="white">
                        <use xlink:href="#path-3"></use>
                    </mask>
                    <g id="Clip-130"></g>
                    <path d="M22.7408,40.5091 L0.0468,40.5091 L0.0468,10.4401 C0.0468,4.9511 4.4958,0.5021 9.9848,0.5021 L12.8028,0.5021 C18.2918,0.5021 22.7408,4.9511 22.7408,10.4401 L22.7408,40.5091 Z" id="Fill-129" fill="#5D9755" mask="url(#mask-4)"></path>
                </g>
                <path d="M68.9505,97.6503 L65.3015,96.9533 C58.5265,95.6603 53.9765,88.5063 55.1405,80.9743 L56.7895,70.2923 C57.2595,67.2523 59.8565,65.2113 62.5915,65.7333 L82.2175,69.4793 C84.2235,69.8623 85.5705,71.9803 85.2255,74.2103 L83.3535,86.3303 C82.1885,93.8783 75.7395,98.9463 68.9505,97.6503" id="Fill-132" fill="#D47D7D"></path>
                <g id="Group-136" transform="translate(56.000000, 65.433000)">
                    <mask id="mask-6" fill="white">
                        <use xlink:href="#path-5"></use>
                    </mask>
                    <g id="Clip-135"></g>
                    <path d="M14.7942,32.5692 L11.1452,31.8722 C4.3702,30.5792 -0.1798,23.4252 0.9842,15.8932 L2.6332,5.2112 C3.1032,2.1712 5.7002,0.1302 8.4352,0.6522 L28.0612,4.3982 C30.0672,4.7812 31.4142,6.8992 31.0692,9.1292 L29.1972,21.2492 C28.0322,28.7972 21.5832,33.8652 14.7942,32.5692" id="Fill-134" fill="#E7B6B5" mask="url(#mask-6)"></path>
                </g>
                <g id="Group-173" transform="translate(52.000000, 60.433000)">
                    <path d="M30.9048,22.3531 C30.6918,23.7331 31.5248,25.0431 32.7658,25.2801 C34.0068,25.5171 35.1858,24.5911 35.3988,23.2111 C35.6118,21.8311 34.7788,20.5211 33.5378,20.2841 C32.2968,20.0471 31.1178,20.9731 30.9048,22.3531" id="Fill-137" fill="#E7B6B5"></path>
                    <path d="M31.6189,22.4894 C31.4739,23.4304 32.0419,24.3244 32.8889,24.4864 C33.7359,24.6484 34.5399,24.0164 34.6849,23.0744 C34.8299,22.1334 34.2619,21.2394 33.4149,21.0774 C32.5689,20.9164 31.7639,21.5484 31.6189,22.4894" id="Fill-139" fill="#D79292"></path>
                    <path d="M4.9078,17.3907 C4.6948,18.7707 3.5158,19.6967 2.2748,19.4597 C1.0338,19.2227 0.2008,17.9127 0.4138,16.5327 C0.6268,15.1527 1.8058,14.2267 3.0468,14.4637 C4.2878,14.7007 5.1208,16.0107 4.9078,17.3907" id="Fill-141" fill="#D79292"></path>
                    <path d="M4.2063,17.1569 C4.1093,18.1059 3.3393,18.7879 2.4853,18.6799 C1.6313,18.5719 1.0183,17.7159 1.1153,16.7669 C1.2123,15.8179 1.9823,15.1359 2.8363,15.2439 C3.6903,15.3509 4.3033,16.2079 4.2063,17.1569" id="Fill-143" fill="#F8B7B7"></path>
                    <path d="M3.8944,18.3815 C3.8394,18.7405 3.5324,18.9805 3.2104,18.9195 C2.8874,18.8575 2.6714,18.5175 2.7264,18.1585 C2.7814,17.7995 3.0884,17.5595 3.4104,17.6205 C3.7334,17.6825 3.9494,18.0225 3.8944,18.3815" id="Fill-145" fill="#D79292"></path>
                    <path d="M31.5629,23.6629 C31.5079,24.0219 31.7239,24.3619 32.0469,24.4239 C32.3689,24.4849 32.6759,24.2449 32.7309,23.8859 C32.7859,23.5269 32.5699,23.1869 32.2469,23.1249 C31.9249,23.0639 31.6179,23.3039 31.5629,23.6629" id="Fill-147" fill="#E7B6B5"></path>
                    <path d="M16.7993,15.5686 L11.3233,17.3586 C11.0653,17.4436 10.7913,17.2776 10.7153,16.9896 L10.7013,16.9376 C10.6253,16.6506 10.7743,16.3456 11.0333,16.2616 L16.5093,14.4716 C16.7673,14.3866 17.0413,14.5526 17.1173,14.8406 L17.1313,14.8916 C17.2073,15.1796 17.0583,15.4836 16.7993,15.5686" id="Fill-149" fill="#352655"></path>
                    <path d="M22.1982,16.0731 L27.7452,17.5671 C28.0072,17.6371 28.2742,17.4571 28.3372,17.1651 L28.3482,17.1131 C28.4122,16.8221 28.2492,16.5251 27.9872,16.4551 L22.4402,14.9611 C22.1782,14.8911 21.9122,15.0711 21.8482,15.3631 L21.8372,15.4151 C21.7742,15.7061 21.9362,16.0021 22.1982,16.0731" id="Fill-151" fill="#352655"></path>
                    <path d="M15.7291,20.6037 C15.6631,21.0287 15.3011,21.3137 14.9191,21.2407 C14.5371,21.1677 14.2811,20.7647 14.3461,20.3397 C14.4121,19.9157 14.7741,19.6297 15.1561,19.7027 C15.5381,19.7757 15.7951,20.1787 15.7291,20.6037" id="Fill-153" fill="#352655"></path>
                    <path d="M25.6637,22.1836 C25.5977,22.6086 25.2357,22.8936 24.8537,22.8206 C24.4717,22.7476 24.2157,22.3446 24.2807,21.9196 C24.3467,21.4956 24.7087,21.2096 25.0907,21.2826 C25.4727,21.3556 25.7297,21.7586 25.6637,22.1836" id="Fill-155" fill="#352655"></path>
                    <path d="M22.095,25.41 C21.744,27.681 20.167,29.276 18.572,28.971 C16.977,28.667 15.969,26.579 16.32,24.308" id="Fill-157" fill="#FEFEFE"></path>
                    <path d="M14.2711,23.3898 L12.2741,23.0088 C11.9361,22.9438 11.7071,22.5838 11.7651,22.2078 L11.7751,22.1398 C11.8331,21.7638 12.1581,21.5088 12.4961,21.5738 L14.4931,21.9548 C14.8311,22.0198 15.0601,22.3798 15.0021,22.7558 L14.9911,22.8238 C14.9331,23.1998 14.6091,23.4548 14.2711,23.3898" id="Fill-159" fill="#D79292"></path>
                    <path d="M26.0879,25.3243 L24.0909,24.9433 C23.7529,24.8783 23.5239,24.5183 23.5819,24.1423 L23.5919,24.0743 C23.6499,23.6983 23.9749,23.4433 24.3129,23.5083 L26.3099,23.8893 C26.6479,23.9543 26.8769,24.3143 26.8189,24.6903 L26.8079,24.7583 C26.7499,25.1343 26.4259,25.3893 26.0879,25.3243" id="Fill-161" fill="#D79292"></path>
                    <path d="M15.0203,41.2096 L14.5053,41.1206 C13.5053,40.9496 12.8273,39.9906 12.9993,38.9916 L13.6683,35.0936 C13.8403,34.0936 14.7983,33.4166 15.7983,33.5886 L16.3133,33.6766 C17.3133,33.8486 17.9913,34.8066 17.8193,35.8066 L17.1503,39.7036 C16.9783,40.7036 16.0203,41.3816 15.0203,41.2096" id="Fill-163" fill="#E7B6B5"></path>
                    <path d="M26.4749,77.9048 L3.0689,77.9048 C2.7679,77.9048 2.5229,77.6588 2.5229,77.3588 L2.5229,77.2038 C2.5229,76.9028 2.7679,76.6568 3.0689,76.6568 L26.4749,76.6568 C26.7759,76.6568 27.0209,76.9028 27.0209,77.2038 L27.0209,77.3588 C27.0209,77.6588 26.7759,77.9048 26.4749,77.9048" id="Fill-165" fill="#2B4A27"></path>
                    <path d="M3.054,20.6374 L3.557,20.7334 C4.654,20.9424 5.696,20.1244 5.884,18.9044 L7.284,9.8384 L4.795,9.3634 L3.054,20.6374 Z" id="Fill-167" fill="#352655"></path>
                    <path d="M31.3557,26.0397 L30.8527,25.9437 C29.7557,25.7347 29.0197,24.5757 29.2077,23.3567 L31.0297,11.5577 L33.5187,12.0327 L31.3557,26.0397 Z" id="Fill-169" fill="#352655"></path>
                    <path d="M28.3527,14.111 L4.7577,9.607 L4.9467,8.384 C5.7337,3.286 10.0897,-0.137 14.6747,0.738 L37.6237,5.119 L37.3237,7.06 C36.5977,11.762 32.5817,14.918 28.3527,14.111" id="Fill-171" fill="#352655"></path>
                </g>
                <g id="Group-176" transform="translate(56.000000, 60.433000)">
                    <mask id="mask-8" fill="white">
                        <use xlink:href="#path-7"></use>
                    </mask>
                    <g id="Clip-175"></g>
                    <path d="M23.7213,12.9411 L0.1263,8.4371 L0.3153,7.2141 C1.1023,2.1161 5.4583,-1.3069 10.0433,-0.4319 L32.9923,3.9491 L32.6923,5.8901 C31.9663,10.5921 27.9503,13.7481 23.7213,12.9411" id="Fill-174" fill="#1B1138" mask="url(#mask-8)"></path>
                </g>
                <g id="Group-195" transform="translate(53.000000, 99.433000)">
                    <path d="M5.8019,29.761 L5.0759,29.761 C3.6669,29.761 2.5139,28.608 2.5139,27.2 L2.5139,7.679 C2.5139,6.27 3.6669,5.118 5.0759,5.118 L5.8019,5.118 C7.2109,5.118 8.3629,6.27 8.3629,7.679 L8.3629,27.2 C8.3629,28.608 7.2109,29.761 5.8019,29.761" id="Fill-177" fill="#D79292"></path>
                    <path d="M2.2658,10.6923 L2.2658,4.3913 C2.2658,2.2593 3.7988,0.5163 5.6728,0.5163 L5.6728,0.5163 C7.5468,0.5163 9.0798,2.2593 9.0798,4.3913 L9.0798,10.6923" id="Fill-179" fill="#44723F"></path>
                    <path d="M9.3135,11.7499 L1.6735,11.7499 C1.2975,11.7499 0.9905,11.4429 0.9905,11.0669 L0.9905,10.8729 C0.9905,10.4979 1.2975,10.1899 1.6735,10.1899 L9.3135,10.1899 C9.6895,10.1899 9.9965,10.4979 9.9965,10.8729 L9.9965,11.0669 C9.9965,11.4429 9.6895,11.7499 9.3135,11.7499" id="Fill-181" fill="#2B4A27"></path>
                    <path d="M3.5091,28.9919 L3.0981,28.3929 C2.3011,27.2309 2.6001,25.6289 3.7621,24.8319 L28.8641,7.6149 C30.0261,6.8179 31.6281,7.1169 32.4251,8.2789 L32.8361,8.8779 C33.6331,10.0389 33.3341,11.6419 32.1731,12.4389 L7.0701,29.6559 C5.9081,30.4519 4.3061,30.1539 3.5091,28.9919" id="Fill-183" fill="#E7B6B5"></path>
                    <path d="M34.6853,10.8387 L30.8203,13.3067 C30.5913,13.4527 30.2843,13.3857 30.1373,13.1557 L30.0623,13.0377 C29.9163,12.8087 29.9833,12.5017 30.2123,12.3557 L34.0773,9.8867 C34.3073,9.7407 34.6143,9.8087 34.7603,10.0377 L34.8363,10.1557 C34.9823,10.3847 34.9143,10.6927 34.6853,10.8387" id="Fill-185" fill="#E7B6B5"></path>
                    <path d="M34.9015,9.054 L30.7095,11.731 C30.4615,11.89 30.1275,11.816 29.9695,11.568 L29.8875,11.439 C29.7285,11.191 29.8015,10.858 30.0505,10.699 L34.2425,8.022 C34.4915,7.863 34.8245,7.937 34.9825,8.185 L35.0645,8.313 C35.2235,8.562 35.1505,8.895 34.9015,9.054" id="Fill-187" fill="#E7B6B5"></path>
                    <path d="M35.6568,6.7744 L31.1008,9.6834 C30.8308,9.8564 30.4688,9.7764 30.2958,9.5064 L30.2068,9.3674 C30.0348,9.0964 30.1148,8.7344 30.3848,8.5624 L34.9408,5.6524 C35.2108,5.4804 35.5728,5.5604 35.7458,5.8304 L35.8348,5.9694 C36.0068,6.2394 35.9268,6.6014 35.6568,6.7744" id="Fill-189" fill="#E7B6B5"></path>
                    <path d="M33.3776,6.3086 L29.5366,8.7616 C29.3076,8.9076 29.0006,8.8396 28.8536,8.6106 L28.7786,8.4926 C28.6326,8.2636 28.6996,7.9566 28.9296,7.8096 L32.7696,5.3566 C32.9996,5.2106 33.3066,5.2786 33.4526,5.5076 L33.5286,5.6256 C33.6746,5.8546 33.6066,6.1626 33.3776,6.3086" id="Fill-191" fill="#E7B6B5"></path>
                    <path d="M27.433,10.5843 L27.654,6.0043 C27.667,5.7323 27.9,5.5213 28.172,5.5343 L28.312,5.5403 C28.584,5.5543 28.795,5.7873 28.782,6.0583 L28.561,10.6383 C28.548,10.9103 28.315,11.1223 28.043,11.1083 L27.903,11.1023 C27.631,11.0893 27.42,10.8563 27.433,10.5843" id="Fill-193" fill="#E7B6B5"></path>
                </g>
            </g>
        </g>
    </g>
</svg>