<?xml version="1.0" encoding="UTF-8"?>
<svg width="228px" height="202px" viewBox="0 0 228 202" version="1.1" xmlns="http://www.w3.org/2000/svg" xmlns:xlink="http://www.w3.org/1999/xlink">
    <!-- Generator: Sketch 45.2 (43514) - http://www.bohemiancoding.com/sketch -->
    <title>ecommerce</title>
    <desc>Created with Sketch.</desc>
    <defs>
        <path d="M0.4179,10.0196887 C2.04857393,5.23439989 5.63744458,1.54731234 10.0750774,0.2114 L17.4573334,0.2114 C23.5652846,2.04997039 28.065,8.34191918 28.065,15.821 C28.065,24.742 21.663,31.973 13.766,31.973 C7.67981511,31.973 2.48124925,27.6769002 0.4179,21.6221777 L0.4179,10.0196887 L0.4179,10.0196887 Z" id="path-1"></path>
        <path d="M0.186236772,0.4999 C0.18382112,0.555969698 0.18273301,0.612344777 0.183,0.669 L0.130411073,7.95401111 L23.1608897,7.95401111 L23.2079914,0.4999 L0.186236772,0.4999 L0.186236772,0.4999 Z" id="path-3"></path>
        <polygon id="path-5" points="0.324494948 0.553514416 5.88090505 0.553514416 5.88090505 2.02548606 0.324494948 2.02548606"></polygon>
        <polygon id="path-7" points="0.701894948 0.553514416 6.25830505 0.553514416 6.25830505 2.02548606 0.701894948 2.02548606"></polygon>
        <polygon id="path-9" points="0.167 2.05675074 0.167 0.978 2.801 0.978 2.801 2.05675074 0.167 2.05675074"></polygon>
        <polygon id="path-11" points="2.87147866 1.576 0.237321336 1.576 0.237321336 0.498621007 2.87147866 0.498621007 2.87147866 1.576"></polygon>
        <path d="M5.30299925,0.3521 C2.60711513,1.66594583 0.75,4.43269455 0.75,7.634 C0.75,12.105 4.374,15.73 8.846,15.73 C12.8099794,15.73 16.1089556,12.8805473 16.8062,9.11837015 L16.8062,6.14936243 C16.3324144,3.5925674 14.6573159,1.45781237 12.3885624,0.352099281 L5.30299925,0.3521 L5.30299925,0.3521 Z" id="path-13"></path>
    </defs>
    <g id="Page-1" stroke="none" stroke-width="1" fill="none" fill-rule="evenodd">
        <g id="Desktop" transform="translate(-739.000000, -1169.000000)">
            <g id="ecommerce" transform="translate(739.000000, 1168.000000)">
                <g id="Group-93" transform="translate(0.000000, 0.500000)">
                    <g id="Group-3" transform="translate(12.000000, 0.000000)" fill="#F6F6F7">
                        <path d="M201.5742,101.2501 C201.5742,156.8931 156.4672,202.0001 100.8242,202.0001 C45.1812,202.0001 0.0742,156.8931 0.0742,101.2501 C0.0742,45.6071 45.1812,0.5001 100.8242,0.5001 C156.4672,0.5001 201.5742,45.6071 201.5742,101.2501" id="Fill-1"></path>
                    </g>
                    <g id="Group-12" transform="translate(119.000000, 29.000000)" stroke="#424444" stroke-linecap="round" opacity="0.2" stroke-linejoin="round">
                        <path d="M22.8636,1.0236 L22.8636,62.2856" id="Stroke-4"></path>
                        <path d="M0.5599,35.1694 L46.8349,35.1694" id="Stroke-6"></path>
                        <path d="M7.802,63.3244 L39.639,63.3244" id="Stroke-8"></path>
                        <path d="M8.6015,0.8902 L38.8775,0.8902" id="Stroke-10"></path>
                    </g>
                    <path d="M100.898,24.2927 L183.54,24.2927" id="Stroke-13" stroke="#424444" opacity="0.2" stroke-linecap="round" stroke-linejoin="round"></path>
                    <g id="Group-19" transform="translate(94.000000, 21.000000)" stroke="#424444" stroke-linecap="round" opacity="0.2" stroke-linejoin="round">
                        <path d="M95.9595,3.2221 C95.9595,4.7271 94.7395,5.9471 93.2335,5.9471 C91.7285,5.9471 90.5085,4.7271 90.5085,3.2221 C90.5085,1.7171 91.7285,0.4961 93.2335,0.4961 C94.7395,0.4961 95.9595,1.7171 95.9595,3.2221 Z" id="Stroke-15"></path>
                        <path d="M5.7383,3.2221 C5.7383,4.7271 4.5183,5.9471 3.0133,5.9471 C1.5073,5.9471 0.2873,4.7271 0.2873,3.2221 C0.2873,1.7171 1.5073,0.4961 3.0133,0.4961 C4.5183,0.4961 5.7383,1.7171 5.7383,3.2221 Z" id="Stroke-17"></path>
                    </g>
                    <path d="M125.4704,28.1114 L101.9634,28.1114 L99.1674,96.9494 L126.8194,96.9494 L118.3264,63.8644 C118.3264,63.8644 134.6884,44.1204 125.4704,28.1114 Z" id="Stroke-20" stroke="#424444" opacity="0.2" stroke-linecap="round" stroke-linejoin="round"></path>
                    <path d="M159.9682,28.1114 L183.4752,28.1114 L186.2712,96.9494 L158.6192,96.9494 L167.1122,63.8644 C167.1122,63.8644 150.7502,44.1204 159.9682,28.1114 Z" id="Stroke-22" stroke="#424444" opacity="0.2" stroke-linecap="round" stroke-linejoin="round"></path>
                    <path d="M105.9715,23.7623 L105.9715,26.9593" id="Stroke-24" stroke="#424444" opacity="0.2" stroke-linecap="round" stroke-linejoin="round"></path>
                    <path d="M109.6081,23.7623 L109.6081,26.9593" id="Stroke-26" stroke="#424444" opacity="0.2" stroke-linecap="round" stroke-linejoin="round"></path>
                    <path d="M113.2447,23.7623 L113.2447,26.9593" id="Stroke-28" stroke="#424444" opacity="0.2" stroke-linecap="round" stroke-linejoin="round"></path>
                    <path d="M116.8813,23.7623 L116.8813,26.9593" id="Stroke-30" stroke="#424444" opacity="0.2" stroke-linecap="round" stroke-linejoin="round"></path>
                    <path d="M120.5178,23.7623 L120.5178,26.9593" id="Stroke-32" stroke="#424444" opacity="0.2" stroke-linecap="round" stroke-linejoin="round"></path>
                    <path d="M166.143,23.7623 L166.143,26.9593" id="Stroke-34" stroke="#424444" opacity="0.2" stroke-linecap="round" stroke-linejoin="round"></path>
                    <path d="M169.7796,23.7623 L169.7796,26.9593" id="Stroke-36" stroke="#424444" opacity="0.2" stroke-linecap="round" stroke-linejoin="round"></path>
                    <path d="M173.4162,23.7623 L173.4162,26.9593" id="Stroke-38" stroke="#424444" opacity="0.2" stroke-linecap="round" stroke-linejoin="round"></path>
                    <path d="M177.0527,23.7623 L177.0527,26.9593" id="Stroke-40" stroke="#424444" opacity="0.2" stroke-linecap="round" stroke-linejoin="round"></path>
                    <path d="M180.6893,23.7623 L180.6893,26.9593" id="Stroke-42" stroke="#424444" opacity="0.2" stroke-linecap="round" stroke-linejoin="round"></path>
                    <path d="M138.7809,55.1244 L132.9309,61.2314" id="Stroke-44" stroke="#424444" opacity="0.2" stroke-linecap="round" stroke-linejoin="round"></path>
                    <path d="M138.2843,50.3995 L129.1923,59.8915" id="Stroke-46" stroke="#424444" opacity="0.2" stroke-linecap="round" stroke-linejoin="round"></path>
                    <path d="M159.943,82.0003 L154.093,88.1073" id="Stroke-48" stroke="#424444" opacity="0.2" stroke-linecap="round" stroke-linejoin="round"></path>
                    <path d="M159.4464,77.2754 L150.3544,86.7674" id="Stroke-50" stroke="#424444" opacity="0.2" stroke-linecap="round" stroke-linejoin="round"></path>
                    <path d="M35.2933,77.9586 L20.0693,77.9586 C19.4683,77.9586 18.9813,77.4716 18.9813,76.8716 L18.9813,71.6536 C18.9813,71.0536 19.4683,70.5666 20.0693,70.5666 L35.2933,70.5666 C35.8943,70.5666 36.3803,71.0536 36.3803,71.6536 L36.3803,76.8716 C36.3803,77.4716 35.8943,77.9586 35.2933,77.9586 Z" id="Stroke-52" stroke="#424444" opacity="0.2" stroke-linecap="round" stroke-linejoin="round"></path>
                    <path d="M22.8179,63.9861 L7.5939,63.9861 C6.9929,63.9861 6.5059,63.4991 6.5059,62.8991 L6.5059,57.6811 C6.5059,57.0811 6.9929,56.5941 7.5939,56.5941 L22.8179,56.5941 C23.4189,56.5941 23.9049,57.0811 23.9049,57.6811 L23.9049,62.8991 C23.9049,63.4991 23.4189,63.9861 22.8179,63.9861 Z" id="Stroke-54" stroke="#424444" opacity="0.2" stroke-linecap="round" stroke-linejoin="round"></path>
                    <path d="M65.3004,53.9642 L57.0794,53.9642 C56.4784,53.9642 55.9924,53.4772 55.9924,52.8772 L55.9924,47.6602 C55.9924,47.0592 56.4784,46.5722 57.0794,46.5722 L65.3004,46.5722 C65.9014,46.5722 66.3874,47.0592 66.3874,47.6602 L66.3874,52.8772 C66.3874,53.4772 65.9014,53.9642 65.3004,53.9642 Z" id="Stroke-56" stroke="#424444" opacity="0.2" stroke-linecap="round" stroke-linejoin="round"></path>
                    <path d="M208.9636,57.9979 L197.5526,57.9979 C196.9516,57.9979 196.4646,57.5109 196.4646,56.9109 L196.4646,51.6929 C196.4646,51.0929 196.9516,50.6059 197.5526,50.6059 L208.9636,50.6059 C209.5646,50.6059 210.0506,51.0929 210.0506,51.6929 L210.0506,56.9109 C210.0506,57.5109 209.5646,57.9979 208.9636,57.9979 Z" id="Stroke-58" stroke="#424444" opacity="0.2" stroke-linecap="round" stroke-linejoin="round"></path>
                    <path d="M218.944,69.4753 L207.533,69.4753 C206.932,69.4753 206.445,68.9883 206.445,68.3883 L206.445,63.1703 C206.445,62.5703 206.932,62.0833 207.533,62.0833 L218.944,62.0833 C219.545,62.0833 220.031,62.5703 220.031,63.1703 L220.031,68.3883 C220.031,68.9883 219.545,69.4753 218.944,69.4753 Z" id="Stroke-60" stroke="#424444" opacity="0.2" stroke-linecap="round" stroke-linejoin="round"></path>
                    <path d="M89.5719,151.1112 L78.1609,151.1112 C77.5599,151.1112 77.0729,150.6242 77.0729,150.0242 L77.0729,144.8072 C77.0729,144.2062 77.5599,143.7192 78.1609,143.7192 L89.5719,143.7192 C90.1729,143.7192 90.6589,144.2062 90.6589,144.8072 L90.6589,150.0242 C90.6589,150.6242 90.1729,151.1112 89.5719,151.1112 Z" id="Stroke-62" stroke="#424444" opacity="0.2" stroke-linecap="round" stroke-linejoin="round"></path>
                    <path d="M99.5523,162.5885 L88.1413,162.5885 C87.5403,162.5885 87.0533,162.1015 87.0533,161.5015 L87.0533,156.2845 C87.0533,155.6835 87.5403,155.1965 88.1413,155.1965 L99.5523,155.1965 C100.1533,155.1965 100.6393,155.6835 100.6393,156.2845 L100.6393,161.5015 C100.6393,162.1015 100.1533,162.5885 99.5523,162.5885 Z" id="Stroke-64" stroke="#424444" opacity="0.2" stroke-linecap="round" stroke-linejoin="round"></path>
                    <g id="Group-75" transform="translate(186.000000, 98.000000)" stroke="#424444" stroke-linecap="round" opacity="0.2" stroke-linejoin="round">
                        <polygon id="Stroke-66" points="0.685 52.704 41.268 52.704 41.268 32.412 0.685 32.412"></polygon>
                        <path d="M26.6127,31.2842 C26.6127,28.1702 24.0897,25.6472 20.9757,25.6472 C17.8627,25.6472 15.3397,28.1702 15.3397,31.2842 L15.3397,32.4112 L26.6127,32.4112 L26.6127,31.2842 Z" id="Stroke-68"></path>
                        <path d="M20.9762,25.6477 L20.9762,16.6297" id="Stroke-69"></path>
                        <polygon id="Stroke-70" points="26.6127 0.8469 15.3397 0.8469 11.9577 16.6289 29.9947 16.6289"></polygon>
                        <path d="M0.6846,43.6846 L41.2676,43.6846" id="Stroke-71"></path>
                        <path d="M20.9762,36.9208 C21.5992,36.9208 22.1032,37.4258 22.1032,38.0478 C22.1032,38.6708 21.5992,39.1758 20.9762,39.1758 C20.3532,39.1758 19.8492,38.6708 19.8492,38.0478 C19.8492,37.4258 20.3532,36.9208 20.9762,36.9208 Z" id="Stroke-72"></path>
                        <path d="M0.6846,48.1938 L41.2676,48.1938" id="Stroke-73"></path>
                        <path d="M27.74,16.6292 L27.74,21.1382" id="Stroke-74"></path>
                    </g>
                    <polyline id="Stroke-76" stroke="#424444" stroke-linecap="round" stroke-linejoin="round" points="66.2345 179.6849 66.2345 125.2919 137.9095 125.2919"></polyline>
                    <polyline id="Stroke-78" stroke="#424444" stroke-linecap="round" stroke-linejoin="round" points="171.4932 179.685 171.4932 125.292 92.8182 125.292"></polyline>
                    <g id="Group-90" transform="translate(0.000000, 99.000000)" stroke="#424444" stroke-linecap="round" opacity="0.2" stroke-linejoin="round">
                        <polygon id="Stroke-80" points="17.278 50.467 38.849 50.467 38.849 16.911 17.278 16.911"></polygon>
                        <polygon id="Stroke-82" points="0.5 50.466 10.087 50.466 10.087 0.133 0.5 0.133"></polygon>
                        <polygon id="Stroke-83" points="46.04 50.466 55.627 50.466 55.627 0.133 46.04 0.133"></polygon>
                        <path d="M46.0397,28.8951 L55.6267,28.8951" id="Stroke-84"></path>
                        <path d="M0.5,28.8951 L10.087,28.8951" id="Stroke-85"></path>
                        <path d="M28.0635,33.6887 C31.3725,33.6887 34.0555,36.3717 34.0555,39.6807 C34.0555,42.9897 31.3725,45.6727 28.0635,45.6727 C24.7545,45.6727 22.0715,42.9897 22.0715,39.6807 C22.0715,36.3717 24.7545,33.6887 28.0635,33.6887 Z" id="Stroke-86"></path>
                        <path d="M34.0556,20.5062 C33.3936,20.5062 32.8576,21.0432 32.8576,21.7042 C32.8576,22.3662 33.3936,22.9032 34.0556,22.9032 C34.7176,22.9032 35.2536,22.3662 35.2536,21.7042 C35.2536,21.0432 34.7176,20.5062 34.0556,20.5062 Z" id="Stroke-87"></path>
                        <path d="M22.0714,20.5062 C21.4094,20.5062 20.8734,21.0432 20.8734,21.7042 C20.8734,22.3662 21.4094,22.9032 22.0714,22.9032 C22.7334,22.9032 23.2694,22.3662 23.2694,21.7042 C23.2694,21.0432 22.7334,20.5062 22.0714,20.5062 Z" id="Stroke-88"></path>
                        <path d="M28.0635,22.903 C29.3875,22.903 30.4605,23.976 30.4605,25.3 C30.4605,26.624 29.3875,27.697 28.0635,27.697 C26.7395,27.697 25.6665,26.624 25.6665,25.3 C25.6665,23.976 26.7395,22.903 28.0635,22.903 Z" id="Stroke-89"></path>
                    </g>
                    <path d="M50.6233,84.4103 C50.4313,86.4103 46.7063,88.0383 41.8673,88.0383 C37.0283,88.0383 33.1083,86.3253 33.1083,84.3683 C33.1083,84.3683 39.0723,82.8223 38.9423,75.6723 L45.3413,75.6723 C45.3413,75.6723 45.5213,83.7333 50.6233,84.4103" id="Fill-91" fill="#FAC5AE"></path>
                </g>
                <polygon id="Fill-94" fill="#F0A082" points="37.1634 80.4771 46.7384 76.3961 38.6904 76.2691"></polygon>
                <path d="M56.0646,60.3205 C56.0646,69.2415 49.6636,76.4725 41.7666,76.4725 C33.8696,76.4725 27.4676,69.2415 27.4676,60.3205 C27.4676,51.3995 33.8696,44.1675 41.7666,44.1675 C49.6636,44.1675 56.0646,51.3995 56.0646,60.3205" id="Fill-96" fill="#E0CC2F"></path>
                <g id="Group-100" transform="translate(28.000000, 44.500000)">
                    <mask id="mask-2" fill="white">
                        <use xlink:href="#path-1"></use>
                    </mask>
                    <g id="Clip-99"></g>
                    <path d="M29.0149,16.3634 C29.0149,25.2844 22.6129,32.5164 14.7169,32.5164 C6.8199,32.5164 0.4179,25.2844 0.4179,16.3634 C0.4179,7.4424 6.8199,0.2114 14.7169,0.2114 C22.6129,0.2114 29.0149,7.4424 29.0149,16.3634" id="Fill-98" fill="#F4DA3F" mask="url(#mask-2)"></path>
                </g>
                <g id="Group-111" transform="translate(27.000000, 50.500000)">
                    <path d="M25.9709,14.8988 C27.4159,14.9208 28.6049,13.7688 28.6279,12.3238 C28.6499,10.8788 27.4979,9.6888 26.0529,9.6668" id="Fill-101" fill="#FAC5AE"></path>
                    <path d="M25.9807,14.2615 C27.0737,14.2785 27.9737,13.4065 27.9907,12.3135 C28.0077,11.2205 27.1357,10.3205 26.0427,10.3035" id="Fill-103" fill="#F06275"></path>
                    <path d="M3.2612,9.6698 C1.8162,9.6468 0.6262,10.7998 0.6042,12.2448 C0.5812,13.6898 1.7342,14.8798 3.1792,14.9018" id="Fill-105" fill="#FAC5AE"></path>
                    <path d="M3.2511,10.3071 C2.1581,10.2901 1.2581,11.1621 1.2411,12.2551 C1.2241,13.3481 2.0961,14.2481 3.1891,14.2651" id="Fill-107" fill="#F06275"></path>
                    <path d="M15.6404,26.7438 L13.6544,26.7518 C7.8474,26.7768 3.1184,22.5338 3.0914,17.2758 L3.1834,4.6688 C3.1724,2.5468 5.0644,0.8178 7.4074,0.8088 L23.0874,0.7428 C24.8064,0.7358 26.2064,1.9918 26.2144,3.5488 L26.1274,17.1598 C26.1544,22.4288 21.4594,26.7198 15.6404,26.7438" id="Fill-109" fill="#FAC5AE"></path>
                </g>
                <g id="Group-114" transform="translate(30.000000, 54.500000)">
                    <mask id="mask-4" fill="white">
                        <use xlink:href="#path-3"></use>
                    </mask>
                    <g id="Clip-113"></g>
                    <path d="M-0.811,3.2339 L16.699,3.2339 C16.699,3.2339 20.128,7.6709 24.079,7.8669 C28.031,8.0629 24.079,7.8669 24.079,7.8669 L24.079,1.3409 L24.011,1.3049 L-0.862,0.4999 L-0.811,3.2339 Z" id="Fill-112" fill="#F3B39C" mask="url(#mask-4)"></path>
                </g>
                <g id="Group-121" transform="translate(32.000000, 59.500000)">
                    <g id="Group-117">
                        <mask id="mask-6" fill="white">
                            <use xlink:href="#path-5"></use>
                        </mask>
                        <g id="Clip-116"></g>
                        <path d="M5.5062,1.411 L0.8102,2.022 C0.5752,2.052 0.3582,1.885 0.3282,1.651 C0.2972,1.416 0.4642,1.199 0.6992,1.168 L5.3952,0.557 C5.6302,0.527 5.8472,0.694 5.8772,0.929 C5.9082,1.163 5.7412,1.38 5.5062,1.411" id="Fill-115" fill="#B3A76E" mask="url(#mask-6)"></path>
                    </g>
                    <g id="Group-120" transform="translate(13.000000, 0.000000)">
                        <mask id="mask-8" fill="white">
                            <use xlink:href="#path-7"></use>
                        </mask>
                        <g id="Clip-119"></g>
                        <path d="M1.0766,1.411 L5.7726,2.022 C6.0076,2.052 6.2246,1.885 6.2546,1.651 C6.2856,1.416 6.1186,1.199 5.8836,1.168 L1.1876,0.557 C0.9526,0.527 0.7356,0.694 0.7056,0.929 C0.6746,1.163 0.8416,1.38 1.0766,1.411" id="Fill-118" fill="#B3A76E" mask="url(#mask-8)"></path>
                    </g>
                </g>
                <g id="Group-138" transform="translate(29.000000, 32.500000)">
                    <g id="Group-124" transform="translate(18.000000, 33.000000)">
                        <mask id="mask-10" fill="white">
                            <use xlink:href="#path-9"></use>
                        </mask>
                        <g id="Clip-123"></g>
                        <path d="M2.2662,2.0567 L0.6852,2.0317 C0.3952,2.0277 0.1622,1.7867 0.1662,1.4967 C0.1712,1.2067 0.4122,0.9737 0.7022,0.9777 L2.2822,1.0027 C2.5722,1.0077 2.8062,1.2477 2.8012,1.5377 C2.7962,1.8277 2.5562,2.0607 2.2662,2.0567" id="Fill-122" fill="#F06275" mask="url(#mask-10)"></path>
                    </g>
                    <g id="Group-127" transform="translate(5.000000, 33.000000)">
                        <mask id="mask-12" fill="white">
                            <use xlink:href="#path-11"></use>
                        </mask>
                        <g id="Clip-126"></g>
                        <path d="M2.3364,1.5767 L0.7554,1.5517 C0.4664,1.5477 0.2324,1.3067 0.2374,1.0167 C0.2414,0.7267 0.4824,0.4937 0.7724,0.4987 L2.3534,0.5227 C2.6424,0.5277 2.8764,0.7687 2.8714,1.0577 C2.8674,1.3477 2.6264,1.5817 2.3364,1.5767" id="Fill-125" fill="#F06275" mask="url(#mask-12)"></path>
                    </g>
                    <path d="M7.6604,30.9904 C7.6504,31.6014 7.1484,32.0884 6.5374,32.0794 C5.9264,32.0694 5.4384,31.5664 5.4484,30.9554 C5.4574,30.3454 5.9604,29.8574 6.5714,29.8674 C7.1824,29.8764 7.6704,30.3794 7.6604,30.9904" id="Fill-128" fill="#352655"></path>
                    <path d="M19.9503,30.9904 C19.9413,31.6014 19.4383,32.0884 18.8273,32.0794 C18.2163,32.0694 17.7283,31.5664 17.7383,30.9554 C17.7483,30.3454 18.2503,29.8574 18.8613,29.8674 C19.4723,29.8764 19.9603,30.3794 19.9503,30.9904" id="Fill-130" fill="#352655"></path>
                    <path d="M0.1249,24.2257 C0.1249,19.1117 5.9579,14.9657 13.1539,14.9657 C20.3489,14.9657 26.1829,19.1117 26.1829,24.2257" id="Fill-132" fill="#F4DA3F"></path>
                    <path d="M13.9225,18.6056 C13.9225,18.6056 21.2755,32.2766 27.9505,28.3646 L20.0985,14.9656 L13.9225,18.6056 Z" id="Fill-134" fill="#F4DA3F"></path>
                    <path d="M20.942,8.6338 C20.942,13.1048 17.317,16.7298 12.846,16.7298 C8.374,16.7298 4.75,13.1048 4.75,8.6338 C4.75,4.1628 8.374,0.5378 12.846,0.5378 C17.317,0.5378 20.942,4.1628 20.942,8.6338" id="Fill-136" fill="#E0CC2F"></path>
                </g>
                <g id="Group-141" transform="translate(33.000000, 33.500000)">
                    <mask id="mask-14" fill="white">
                        <use xlink:href="#path-13"></use>
                    </mask>
                    <g id="Clip-140"></g>
                    <path d="M16.8062,8.4481 C16.8062,12.9191 13.1812,16.5441 8.7102,16.5441 C4.2392,16.5441 0.6142,12.9191 0.6142,8.4481 C0.6142,3.9771 4.2392,0.3521 8.7102,0.3521 C13.1812,0.3521 16.8062,3.9771 16.8062,8.4481" id="Fill-139" fill="#F4DA3F" mask="url(#mask-14)"></path>
                </g>
                <g id="Group-259" transform="translate(20.000000, 56.500000)">
                    <path d="M27.8445,0.105 C27.8445,0.105 31.6535,4.737 35.1825,4.457 C35.1825,4.457 32.2265,3.304 29.8015,0.105 L27.8445,0.105 Z" id="Fill-142" fill="#E0CC2F"></path>
                    <path d="M15.0052,27.3281 C15.0052,27.3281 20.4162,32.2411 29.8652,27.5551 C29.8652,27.5551 32.3752,27.7161 33.9722,30.2791 C34.6532,31.3721 9.2892,31.3431 11.4302,29.0541 C12.2592,28.1681 13.4092,27.4941 15.0052,27.3281" id="Fill-144" fill="#5C519E"></path>
                    <path d="M30.116,118.8775 L26.537,119.0095 L26.867,126.6835 L28.494,126.2865 L28.206,124.4345 C28.206,124.4345 28.397,126.9485 36.397,126.2865 L36.397,125.6245 C36.397,125.6245 28.654,126.4185 30.116,118.8775" id="Fill-146" fill="#0B162A"></path>
                    <path d="M22.6511,63.9762 L26.7191,120.6332 C26.7191,120.6332 30.0691,121.6332 30.0691,120.6332 C30.0691,119.6332 33.4611,63.7382 33.4611,63.7382 L22.6511,63.9762 Z" id="Fill-148" fill="#091613"></path>
                    <path d="M30.116,118.8775 L26.537,119.0095 L26.867,126.6835 L28.494,126.2865 L28.206,124.4345 C28.206,124.4345 28.397,126.9485 36.397,126.2865 L36.397,125.6245 C36.397,125.6245 28.654,126.4185 30.116,118.8775" id="Fill-150" fill="#322E7C"></path>
                    <path d="M15.561,118.8775 L19.082,119.0095 L18.722,126.6835 L17.081,126.2865 L17.478,124.4345 C17.478,124.4345 17.397,126.9485 9.397,126.2865 L9.397,125.6245 C9.397,125.6245 17.023,126.4185 15.561,118.8775" id="Fill-152" fill="#0B162A"></path>
                    <path d="M22.6511,63.9762 L18.8411,120.6332 C18.8411,120.6332 15.4911,121.6332 15.4911,120.6332 C15.4911,119.6332 12.0991,63.7382 12.0991,63.7382 L22.6511,63.9762 Z" id="Fill-154" fill="#091613"></path>
                    <path d="M15.561,118.8775 L19.082,119.0095 L18.722,126.6835 L17.081,126.2865 L17.478,124.4345 C17.478,124.4345 17.397,126.9485 9.397,126.2865 L9.397,125.6245 C9.397,125.6245 17.023,126.4185 15.561,118.8775" id="Fill-156" fill="#322E7C"></path>
                    <path d="M33.1611,49.0506 C33.1611,49.0506 31.7951,61.6336 33.5301,63.6336 L11.8411,63.6336 C11.8411,63.6336 13.3571,52.7676 11.8411,49.1376 L33.1611,49.0506 Z" id="Fill-158" fill="#5C519E"></path>
                    <path d="M33.1611,48.696 C33.1611,48.696 33.1811,48.577 32.9821,49.702 L12.3291,49.792 C12.3291,49.792 12.3751,49.435 11.8411,48.694 L33.1611,48.696 Z" id="Fill-160" fill="#4B4687"></path>
                    <path d="M31.9043,64.7556 L13.3983,64.7556 C12.5383,64.7556 11.8413,64.0586 11.8413,63.1986 L11.8413,63.0696 L33.4613,63.0696 L33.4613,63.1986 C33.4613,64.0586 32.7643,64.7556 31.9043,64.7556" id="Fill-162" fill="#322E7C"></path>
                    <path d="M35.0935,42.5477 L31.4995,32.9867 C31.3115,31.7837 30.2345,29.6327 29.0385,29.6327 L15.9275,29.6327 C14.6655,29.6327 13.6225,31.8887 13.5215,33.1897 L8.6645,44.3807 C8.5655,44.5747 8.4875,44.8777 8.4325,45.0947 L8.3555,45.3467 L7.9175,45.3707 C7.8855,45.5497 7.3965,45.7577 7.3965,45.9467 L7.3965,46.7127 C7.3965,48.3387 9.6045,48.6327 11.1515,48.6327 L33.2645,48.6327 C34.8125,48.6327 36.3965,48.3387 36.3965,46.7127 L36.3965,45.9467 C36.3965,45.4747 35.2825,42.9447 35.0935,42.5477" id="Fill-164" fill="#5C519E"></path>
                    <path d="M46.2465,41.2975 L46.3365,41.2135 C47.4395,40.1835 47.4105,38.5395 46.2725,37.5415 L33.4715,29.2405 C32.1565,28.0865 30.0565,28.1165 28.7825,29.3065 L28.7825,29.3065 C27.8015,30.2225 27.8275,31.6845 28.8395,32.5725 L42.1895,41.3555 C43.3275,42.3535 45.1435,42.3275 46.2465,41.2975" id="Fill-166" fill="#5C519E"></path>
                    <g id="Group-171" transform="translate(31.000000, 7.000000)">
                        <path d="M8.669,11.9307 L3.93,12.5897 C2.96,12.7237 2.044,12.1157 1.895,11.2377 L0.453,2.7367 C0.304,1.8587 0.976,1.0297 1.946,0.8947 L6.685,0.2367 C7.655,0.1017 8.57,0.7097 8.719,1.5877 L10.161,10.0897 C10.31,10.9677 9.639,11.7957 8.669,11.9307" id="Fill-168" fill="#8879B8"></path>
                        <path d="M8.669,11.9307 L3.93,12.5897 C2.96,12.7237 2.044,12.1157 1.895,11.2377 L0.453,2.7367 C0.304,1.8587 0.976,1.0297 1.946,0.8947 L6.685,0.2367 C7.655,0.1017 8.57,0.7097 8.719,1.5877 L10.161,10.0897 C10.31,10.9677 9.639,11.7957 8.669,11.9307" id="Stroke-170" stroke="#424444" stroke-width="0.25"></path>
                    </g>
                    <path d="M36.3733,9.8322 C36.4333,10.1852 36.1653,10.5152 35.7753,10.5692 C35.3853,10.6242 35.0203,10.3812 34.9603,10.0282 C34.9003,9.6752 35.1683,9.3452 35.5583,9.2912 C35.9483,9.2372 36.3133,9.4792 36.3733,9.8322" id="Fill-172" fill="#FEFEFE"></path>
                    <path d="M36.5741,13.7116 L37.3951,16.6256 C37.4501,16.8216 37.6961,16.9416 37.9411,16.8916 L37.9701,16.8856 C38.2151,16.8366 38.3701,16.6366 38.3151,16.4406 L37.4941,13.5266 C37.4391,13.3306 37.1931,13.2106 36.9481,13.2606 L36.9191,13.2656 C36.6741,13.3156 36.5191,13.5156 36.5741,13.7116" id="Fill-174" fill="#FAC5AE"></path>
                    <path d="M37.4965,12.7433 L38.3875,15.9043 C38.4465,16.1163 38.7135,16.2463 38.9795,16.1923 L39.0105,16.1863 C39.2765,16.1333 39.4455,15.9153 39.3855,15.7033 L38.4945,12.5423 C38.4345,12.3303 38.1685,12.2003 37.9025,12.2543 L37.8715,12.2603 C37.6055,12.3143 37.4365,12.5313 37.4965,12.7433" id="Fill-176" fill="#FAC5AE"></path>
                    <path d="M38.3842,11.2637 L39.3652,14.7437 C39.4262,14.9617 39.7002,15.0957 39.9742,15.0407 L40.0642,15.0227 C40.3382,14.9677 40.5112,14.7437 40.4492,14.5257 L39.4692,11.0457 C39.4072,10.8267 39.1332,10.6937 38.8602,10.7487 L38.7702,10.7667 C38.4962,10.8217 38.3222,11.0457 38.3842,11.2637" id="Fill-178" fill="#FAC5AE"></path>
                    <path d="M40.0148,12.1008 L40.8308,14.9968 C40.8858,15.1918 41.1318,15.3118 41.3768,15.2628 L41.4058,15.2568 C41.6508,15.2068 41.8058,15.0068 41.7508,14.8108 L40.9348,11.9158 C40.8798,11.7198 40.6348,11.5998 40.3888,11.6498 L40.3608,11.6548 C40.1148,11.7048 39.9598,11.9048 40.0148,12.1008" id="Fill-180" fill="#FAC5AE"></path>
                    <path d="M41.0453,16.8614 L43.5503,14.5764 C43.7183,14.4234 43.7033,14.1904 43.5163,14.0594 L43.4943,14.0444 C43.3073,13.9124 43.0173,13.9314 42.8493,14.0844 L40.3443,16.3694 C40.1763,16.5224 40.1913,16.7554 40.3783,16.8864 L40.4003,16.9024 C40.5863,17.0334 40.8773,17.0144 41.0453,16.8614" id="Fill-182" fill="#FAC5AE"></path>
                    <path d="M44.9047,41.8449 L45.0707,41.8109 C46.4917,41.5169 47.4557,40.2839 47.2147,39.0709 L42.5777,15.7939 C42.3357,14.5809 40.9767,13.8279 39.5557,14.1219 L39.3897,14.1559 C37.9687,14.4499 37.0037,15.6839 37.2457,16.8969 L41.8827,40.1729 C42.1237,41.3869 43.4837,42.1389 44.9047,41.8449" id="Fill-184" fill="#FAC5AE"></path>
                    <path d="M36.5741,13.7116 L37.3951,16.6256 C37.4501,16.8216 37.6961,16.9416 37.9411,16.8916 L37.9701,16.8856 C38.2151,16.8366 38.3701,16.6366 38.3151,16.4406 L37.4941,13.5266 C37.4391,13.3306 37.1931,13.2106 36.9481,13.2606 L36.9191,13.2656 C36.6741,13.3156 36.5191,13.5156 36.5741,13.7116" id="Fill-186" fill="#FAC5AE"></path>
                    <path d="M37.4965,12.7433 L38.3875,15.9043 C38.4465,16.1163 38.7135,16.2463 38.9795,16.1923 L39.0105,16.1863 C39.2765,16.1333 39.4455,15.9153 39.3855,15.7033 L38.4945,12.5423 C38.4345,12.3303 38.1685,12.2003 37.9025,12.2543 L37.8715,12.2603 C37.6055,12.3143 37.4365,12.5313 37.4965,12.7433" id="Fill-188" fill="#FAC5AE"></path>
                    <path d="M38.3842,11.2637 L39.3652,14.7437 C39.4262,14.9617 39.7002,15.0957 39.9742,15.0407 L40.0642,15.0227 C40.3382,14.9677 40.5112,14.7437 40.4492,14.5257 L39.4692,11.0457 C39.4072,10.8267 39.1332,10.6937 38.8602,10.7487 L38.7702,10.7667 C38.4962,10.8217 38.3222,11.0457 38.3842,11.2637" id="Fill-190" fill="#FAC5AE"></path>
                    <path d="M40.0148,12.1008 L40.8308,14.9968 C40.8858,15.1918 41.1318,15.3118 41.3768,15.2628 L41.4058,15.2568 C41.6508,15.2068 41.8058,15.0068 41.7508,14.8108 L40.9348,11.9158 C40.8798,11.7198 40.6348,11.5998 40.3888,11.6498 L40.3608,11.6548 C40.1148,11.7048 39.9598,11.9048 40.0148,12.1008" id="Fill-192" fill="#FAC5AE"></path>
                    <path d="M41.0453,16.8614 L43.5503,14.5764 C43.7183,14.4234 43.7033,14.1904 43.5163,14.0594 L43.4943,14.0444 C43.3073,13.9124 43.0173,13.9314 42.8493,14.0844 L40.3443,16.3694 C40.1763,16.5224 40.1913,16.7554 40.3783,16.8864 L40.4003,16.9024 C40.5863,17.0334 40.8773,17.0144 41.0453,16.8614" id="Fill-194" fill="#FAC5AE"></path>
                    <path d="M30.1059,58.7419 L27.0779,58.7289 C26.8749,58.7289 26.6939,58.5239 26.6759,58.2749 L26.6739,58.2449 C26.6559,57.9959 26.8079,57.7929 27.0109,57.7929 L30.0389,57.8059 C30.2419,57.8069 30.4229,58.0109 30.4409,58.2609 L30.4429,58.2899 C30.4609,58.5399 30.3089,58.7429 30.1059,58.7419" id="Fill-196" fill="#FAC5AE"></path>
                    <path d="M30.7924,57.5943 L27.5084,57.5813 C27.2884,57.5803 27.0914,57.3573 27.0724,57.0873 L27.0694,57.0553 C27.0504,56.7853 27.2144,56.5643 27.4354,56.5653 L30.7194,56.5793 C30.9394,56.5793 31.1364,56.8013 31.1554,57.0723 L31.1574,57.1043 C31.1774,57.3743 31.0124,57.5953 30.7924,57.5943" id="Fill-198" fill="#FAC5AE"></path>
                    <path d="M31.9809,56.3434 L28.3649,56.3284 C28.1389,56.3274 27.9369,56.0994 27.9169,55.8204 L27.9099,55.7294 C27.8899,55.4504 28.0589,55.2244 28.2859,55.2244 L31.9019,55.2394 C32.1279,55.2404 32.3299,55.4694 32.3499,55.7474 L32.3569,55.8394 C32.3769,56.1174 32.2079,56.3444 31.9809,56.3434" id="Fill-200" fill="#FAC5AE"></path>
                    <path d="M30.7385,54.9958 L27.7305,54.9838 C27.5265,54.9828 27.3455,54.7778 27.3275,54.5288 L27.3265,54.4988 C27.3085,54.2498 27.4595,54.0468 27.6625,54.0468 L30.6715,54.0598 C30.8745,54.0598 31.0555,54.2648 31.0735,54.5148 L31.0755,54.5438 C31.0935,54.7928 30.9415,54.9968 30.7385,54.9958" id="Fill-202" fill="#FAC5AE"></path>
                    <path d="M25.8757,55.2752 L27.4077,52.2512 C27.5107,52.0482 27.7397,52.0002 27.9157,52.1452 L27.9357,52.1622 C28.1127,52.3072 28.1727,52.5922 28.0697,52.7952 L26.5367,55.8192 C26.4347,56.0222 26.2057,56.0702 26.0297,55.9252 L26.0087,55.9082 C25.8327,55.7632 25.7727,55.4782 25.8757,55.2752" id="Fill-204" fill="#FAC5AE"></path>
                    <path d="M0.7695,58.2334 L0.7585,58.0634 C0.6615,56.6164 1.5915,55.3574 2.8255,55.2664 L26.4945,53.5134 C27.7285,53.4214 28.8175,54.5314 28.9135,55.9784 L28.9245,56.1484 C29.0215,57.5954 28.0905,58.8544 26.8575,58.9454 L3.1885,60.6994 C1.9545,60.7904 0.8655,59.6804 0.7695,58.2334" id="Fill-206" fill="#FAC5AE"></path>
                    <path d="M30.1059,58.7419 L27.0779,58.7289 C26.8749,58.7289 26.6939,58.5239 26.6759,58.2749 L26.6739,58.2449 C26.6559,57.9959 26.8079,57.7929 27.0109,57.7929 L30.0389,57.8059 C30.2419,57.8069 30.4229,58.0109 30.4409,58.2609 L30.4429,58.2899 C30.4609,58.5399 30.3089,58.7429 30.1059,58.7419" id="Fill-208" fill="#FAC5AE"></path>
                    <path d="M30.7924,57.5943 L27.5084,57.5813 C27.2884,57.5803 27.0914,57.3573 27.0724,57.0873 L27.0694,57.0553 C27.0504,56.7853 27.2144,56.5643 27.4354,56.5653 L30.7194,56.5793 C30.9394,56.5793 31.1364,56.8013 31.1554,57.0723 L31.1574,57.1043 C31.1774,57.3743 31.0124,57.5953 30.7924,57.5943" id="Fill-210" fill="#FAC5AE"></path>
                    <path d="M31.9809,56.3434 L28.3649,56.3284 C28.1389,56.3274 27.9369,56.0994 27.9169,55.8204 L27.9099,55.7294 C27.8899,55.4504 28.0589,55.2244 28.2859,55.2244 L31.9019,55.2394 C32.1279,55.2404 32.3299,55.4694 32.3499,55.7474 L32.3569,55.8394 C32.3769,56.1174 32.2079,56.3444 31.9809,56.3434" id="Fill-212" fill="#FAC5AE"></path>
                    <path d="M30.7385,54.9958 L27.7305,54.9838 C27.5265,54.9828 27.3455,54.7778 27.3275,54.5288 L27.3265,54.4988 C27.3085,54.2498 27.4595,54.0468 27.6625,54.0468 L30.6715,54.0598 C30.8745,54.0598 31.0555,54.2648 31.0735,54.5148 L31.0755,54.5438 C31.0935,54.7928 30.9415,54.9968 30.7385,54.9958" id="Fill-214" fill="#FAC5AE"></path>
                    <path d="M25.8757,55.2752 L27.4077,52.2512 C27.5107,52.0482 27.7397,52.0002 27.9157,52.1452 L27.9357,52.1622 C28.1127,52.3072 28.1727,52.5922 28.0697,52.7952 L26.5367,55.8192 C26.4347,56.0222 26.2057,56.0702 26.0297,55.9252 L26.0087,55.9082 C25.8327,55.7632 25.7727,55.4782 25.8757,55.2752" id="Fill-216" fill="#FAC5AE"></path>
                    <path d="M2.6489,60.7784 L1.6649,60.4774 C0.4009,60.0914 -0.2771,58.8524 0.1489,57.7084 L10.4629,30.0504 C10.9599,28.7174 12.5579,28.0014 14.0309,28.4514 L14.9049,28.7184 C16.0199,29.0584 16.6179,30.1524 16.2419,31.1604 L5.7079,59.4064 C5.2819,60.5504 3.9119,61.1644 2.6489,60.7784" id="Fill-218" fill="#5C519E"></path>
                    <path d="M22.8167,15.8092 C22.8067,16.2952 22.4037,16.6812 21.9167,16.6712 C21.4307,16.6612 21.0447,16.2582 21.0547,15.7712" id="Fill-220" fill="#F06373"></path>
                    <path d="M20.6551,13.3618 C20.6651,12.8748 21.0681,12.4898 21.5551,12.4998 C22.0411,12.5098 22.4271,12.9128 22.4171,13.3998" id="Fill-222" fill="#F06373"></path>
                    <path d="M21.7612,13.3855 C21.7712,12.8985 22.1742,12.5135 22.6612,12.5235 C23.1472,12.5335 23.5332,12.9365 23.5232,13.4235" id="Fill-224" fill="#F06373"></path>
                    <polygon id="Fill-226" fill="#FEFEFE" points="18.7403 13.2355 25.3583 13.3775 21.8233 15.9575"></polygon>
                    <g id="Group-231" transform="translate(57.000000, 37.000000)">
                        <path d="M0.1901,25.8619 L0.1901,2.7719 C0.1901,1.2409 1.4311,0.0019 2.9611,0.0019 L36.2101,0.0019 C37.7391,0.0019 38.9811,1.2409 38.9811,2.7719 L38.9811,25.8619" id="Fill-228" fill="#DBDADA"></path>
                        <path d="M0.1901,25.8619 L0.1901,2.7719 C0.1901,1.2409 1.4311,0.0019 2.9611,0.0019 L36.2101,0.0019 C37.7391,0.0019 38.9811,1.2409 38.9811,2.7719 L38.9811,25.8619" id="Stroke-230" stroke="#424444" stroke-linecap="round" stroke-linejoin="round"></path>
                    </g>
                    <g id="Group-235" transform="translate(59.000000, 39.000000)">
                        <path d="M0.5271,25.7068 L0.5271,2.9408 C0.5271,1.4308 1.6181,0.2088 2.9621,0.2088 L32.1881,0.2088 C33.5321,0.2088 34.6231,1.4308 34.6231,2.9408 L34.6231,25.7068" id="Fill-232" fill="#FEFEFE"></path>
                        <path d="M0.5271,25.7068 L0.5271,2.9408 C0.5271,1.4308 1.6181,0.2088 2.9621,0.2088 L32.1881,0.2088 C33.5321,0.2088 34.6231,1.4308 34.6231,2.9408 L34.6231,25.7068" id="Stroke-234" stroke="#424444"></path>
                    </g>
                    <path d="M81.2034,62.8619 L81.2034,64.7089 L71.9674,64.7089 L71.9674,62.8619 L55.3434,62.8619 L55.3434,66.5559 C55.3434,67.5759 56.1704,68.4039 57.1904,68.4039 L95.9804,68.4039 C97.0024,68.4039 97.8284,67.5759 97.8284,66.5559 L97.8284,62.8619 L81.2034,62.8619 Z" id="Fill-236" fill="#B5B6B6"></path>
                    <path d="M81.2034,62.8619 L81.2034,64.7089 L71.9674,64.7089 L71.9674,62.8619 L55.3434,62.8619 L55.3434,66.5559 C55.3434,67.5759 56.1704,68.4039 57.1904,68.4039 L95.9804,68.4039 C97.0024,68.4039 97.8284,67.5759 97.8284,66.5559 L97.8284,62.8619 L81.2034,62.8619 Z" id="Stroke-238" stroke="#424444" stroke-linecap="round" stroke-linejoin="round"></path>
                    <path d="M80.7449,55.7333 C81.3299,55.7333 81.8039,56.2073 81.8039,56.7923 C81.8039,57.3773 81.3299,57.8513 80.7449,57.8513 C80.1599,57.8513 79.6859,57.3773 79.6859,56.7923 C79.6859,56.2073 80.1599,55.7333 80.7449,55.7333 Z" id="Stroke-240" stroke="#424444" stroke-linecap="round" stroke-linejoin="round"></path>
                    <path d="M72.9774,55.7333 C73.5624,55.7333 74.0364,56.2073 74.0364,56.7923 C74.0364,57.3773 73.5624,57.8513 72.9774,57.8513 C72.3924,57.8513 71.9184,57.3773 71.9184,56.7923 C71.9184,56.2073 72.3924,55.7333 72.9774,55.7333 Z" id="Stroke-242" stroke="#424444" stroke-linecap="round" stroke-linejoin="round"></path>
                    <polyline id="Stroke-244" stroke="#424444" stroke-linecap="round" stroke-linejoin="round" points="67.6814 43.729 70.1524 43.729 72.9774 55.733 80.7454 55.733"></polyline>
                    <polyline id="Stroke-246" stroke="#424444" points="72.6448 54.3211 81.8038 54.3211 83.9228 47.9661 71.1498 47.9661"></polyline>
                    <polygon id="Fill-248" fill="#FFDA93" points="103.522 68.162 126.4 68.162 126.4 45.458 103.522 45.458"></polygon>
                    <polygon id="Stroke-250" stroke="#424444" points="103.522 68.162 126.4 68.162 126.4 45.458 103.522 45.458"></polygon>
                    <path d="M109.5425,44.8708 L109.5425,42.6008 C109.5425,38.8388 111.9685,35.7898 114.9605,35.7898 C117.9545,35.7898 120.3795,38.8388 120.3795,42.6008 L120.3795,44.8708" id="Stroke-251" stroke="#424444" stroke-linecap="round" stroke-linejoin="round"></path>
                    <polygon id="Fill-252" fill="#FDC249" points="130 59.318 147.843 59.318 147.843 56.215 130 56.215"></polygon>
                    <polygon id="Stroke-253" stroke="#424444" points="130 59.318 147.843 59.318 147.843 56.215 130 56.215"></polygon>
                    <polygon id="Fill-254" fill="#FFDA93" points="130.775 68.627 147.066 68.627 147.066 59.318 130.775 59.318"></polygon>
                    <polygon id="Stroke-255" stroke="#424444" points="130.775 68.627 147.066 68.627 147.066 59.318 130.775 59.318"></polygon>
                    <path d="M139.064,56.2146 L139.064,68.6266" id="Stroke-256" stroke="#424444" stroke-linecap="round" stroke-linejoin="round"></path>
                    <path d="M143.3095,54.4831 C142.5525,55.2411 138.9205,56.1281 138.9205,56.1281 C138.9205,56.1281 139.8095,52.4971 140.5665,51.7401 C141.3235,50.9831 142.5525,50.9831 143.3095,51.7401 C144.0665,52.4971 144.0665,53.7261 143.3095,54.4831 Z" id="Stroke-257" stroke="#424444" stroke-linecap="round" stroke-linejoin="round"></path>
                    <path d="M134.5325,54.4831 C135.2895,55.2411 138.9215,56.1281 138.9215,56.1281 C138.9215,56.1281 138.0315,52.4971 137.2755,51.7401 C136.5175,50.9831 135.2895,50.9831 134.5325,51.7401 C133.7755,52.4971 133.7745,53.7261 134.5325,54.4831 Z" id="Stroke-258" stroke="#424444" stroke-linecap="round" stroke-linejoin="round"></path>
                </g>
            </g>
        </g>
    </g>
</svg>