<svg width="272" height="63" viewBox="0 0 272 63" xmlns="http://www.w3.org/2000/svg"><title>logo_mu_4x</title><g stroke-width=".6" fill="none" fill-rule="evenodd"><path d="M92.095 7.491c-2.2 0-5.041.53-7.273 1.35-1.173-.933-2.838-1.35-5.378-1.35-2.522 0-5.72.653-7.776 1.589l-.107.048v19.12h2.919V10.911c1.248-.384 2.968-.62 4.532-.62 3.965 0 5.2.977 5.2 7.086v10.87h2.919v-11.38c0-2.325-.26-4.268-.775-5.78 1.78-.585 3.873-.796 5.268-.796 3.93 0 5.239 1.024 5.239 7.086v10.87h2.919v-11.38c0-7.186-1.796-9.377-7.687-9.377m15.99 8.41c.327-4.322 1.72-5.647 5.854-5.647 3.443 0 4.735.86 4.995 5.646h-10.85zm5.854-8.409c-6.379 0-9.1 3.157-9.1 10.555 0 7.636 2.738 10.751 9.454 10.751 1.696 0 4.522-.476 6.576-1.108l.165-.05-.68-2.724-.192.072c-1.687.627-4.275 1.049-5.633 1.049-4.33 0-6.418-1.122-6.495-7.454h14.182V18.4c0-8.054-2.166-10.909-8.277-10.909zm21.059 0c-2.285 0-5.797.546-8.09 1.589l-.108.048v19.12h2.919V10.912c1.443-.429 2.933-.62 4.807-.62 4.235 0 5.554.976 5.554 7.085v10.87H143v-11.38c0-7.098-1.944-9.377-8.001-9.377m20.873 8.999c-3.44-.227-4.78-1.035-4.78-2.882 0-2.903 1.507-3.393 4.886-3.393 1.755 0 3.845.406 5.59 1.087l.176.069.993-2.797-.188-.053c-2.363-.663-4.696-1.029-6.571-1.029-5.636 0-8.04 1.9-8.04 6.351 0 2.559.92 4.994 7.592 5.486 3.955.326 4.705 1.403 4.705 3.276 0 2.985-1.513 3.51-4.69 3.51-2.077 0-4.957-.514-6.289-1.122l-.185-.085-.906 2.762.171.058c1.97.67 5.213 1.07 7.21 1.07 5.644 0 7.843-1.802 7.843-6.429 0-3.759-2.248-5.517-7.517-5.879m20.104 9.625c-4.092 0-5.122-.515-5.122-4.375 0-3.417 1.092-3.903 5.122-3.903 2.006 0 3.831.167 5.161.472v6.956c-1.578.55-3.405.85-5.161.85m-.354-18.623c-2.085 0-4.322.333-6.65.99l-.18.05.862 2.768.185-.078c1.369-.582 3.471-.929 5.626-.929 4.536 0 5.636 1.033 5.671 5.487-2.065-.427-3.57-.587-5.474-.587-4.827 0-8.04 1.147-8.04 6.744 0 5.066 2.155 6.861 8.236 6.861 2.707 0 6.034-.653 8.09-1.588l.108-.048V15.374c0-5.82-2.207-7.883-8.434-7.883M191.18.498c-1.352 0-1.832.26-1.832 1.715 0 1.611.54 1.872 1.832 1.872 1.265 0 1.794-.26 1.794-1.872 0-1.477-.53-1.715-1.794-1.715m-1.518 28.667c0 3.71-1.156 4.336-3.746 4.336h-.183v2.722h.183c3.461 0 6.665-.855 6.665-7.058V8.042h-2.919v21.123zM200.923 15.9c.328-4.322 1.72-5.647 5.855-5.647 3.442 0 4.734.86 4.994 5.646h-10.849zm5.855-8.409c-6.379 0-9.1 3.157-9.1 10.555 0 7.636 2.738 10.751 9.453 10.751 1.696 0 4.523-.476 6.576-1.108l.165-.05-.68-2.724-.191.072c-1.687.627-4.275 1.049-5.634 1.049-4.329 0-6.417-1.122-6.495-7.454h14.182V18.4c0-8.054-2.166-10.909-8.276-10.909zm21.176 0c-2.515 0-4.433.8-5.396 1.687V8.042h-2.919v20.205h2.919V12.9c0-1.808 2.907-2.45 5.396-2.45.756 0 1.476.084 2.02.156l.206.028V7.63l-.16-.02a17.034 17.034 0 0 0-2.066-.12m13.83 18.585c-4.644 0-5.986-1.783-5.986-7.95 0-5.936.865-7.912 5.986-7.912 4.521 0 6.025 1.144 6.025 7.912 0 6.167-1.351 7.95-6.025 7.95m0-18.584c-6.692 0-9.18 2.861-9.18 10.555 0 7.838 2.488 10.751 9.18 10.751 6.72 0 9.219-2.913 9.219-10.75 0-7.695-2.499-10.556-9.22-10.556m21.622 8.998c-3.44-.227-4.78-1.035-4.78-2.882 0-2.903 1.506-3.393 4.885-3.393 1.756 0 3.846.406 5.591 1.087l.176.069.992-2.797-.188-.053c-2.363-.663-4.696-1.029-6.57-1.029-5.637 0-8.041 1.9-8.041 6.351 0 2.559.92 4.994 7.593 5.486 3.955.326 4.704 1.403 4.704 3.276 0 2.985-1.512 3.51-4.69 3.51-2.077 0-4.956-.514-6.288-1.122l-.186-.085-.905 2.762.17.058c1.971.67 5.214 1.07 7.21 1.07 5.645 0 7.844-1.802 7.844-6.429 0-3.759-2.248-5.517-7.517-5.879" stroke="#0AAAC0" fill="#05AAC0"/><path d="M84.84 56.745c-1.41.454-2.912.658-4.846.658-4.205 0-5.514-.978-5.514-7.086v-10.87h-2.92v11.38c0 7.098 1.944 9.377 8 9.377 2.254 0 5.756-.546 8.09-1.588l.108-.048v-19.12H84.84v17.297zm16.802-17.848c-2.515 0-4.434.8-5.397 1.687v-1.136h-2.919v20.205h2.92V44.305c0-1.808 2.906-2.45 5.396-2.45.758 0 1.477.083 2.019.156l.206.027v-3.001l-.16-.02a16.992 16.992 0 0 0-2.065-.12m8.078 5.408c0-1.791 2.737-2.607 5.28-2.607 4.699 0 5.986 1.692 5.986 7.872 0 6.7-1.495 7.832-5.986 7.832-1.935 0-3.85-.28-5.28-.771V44.305zm5.28-5.408c-2.167 0-3.94.48-5.28 1.428v-9.403h-2.918v27.645l.107.048c2.294 1.043 5.806 1.588 8.09 1.588 6.692 0 9.18-2.87 9.18-10.594 0-7.808-2.488-10.712-9.18-10.712zm21.883 18.623c-4.092 0-5.121-.514-5.121-4.375 0-3.417 1.091-3.903 5.121-3.903 2.007 0 3.831.167 5.161.472v6.956c-1.576.55-3.404.85-5.16.85m-.354-18.623c-2.086 0-4.324.333-6.65.99l-.18.05.861 2.768.186-.078c1.367-.582 3.47-.929 5.625-.929 4.537 0 5.637 1.033 5.672 5.486-2.067-.426-3.572-.586-5.475-.586-4.826 0-8.04 1.147-8.04 6.744 0 5.066 2.155 6.862 8.236 6.862 2.707 0 6.034-.654 8.091-1.589l.107-.048V46.78c0-5.82-2.207-7.883-8.433-7.883m22.237 0c-2.285 0-5.797.546-8.09 1.589l-.108.048v19.12h2.919V42.318c1.443-.429 2.932-.62 4.807-.62 4.235 0 5.554.977 5.554 7.085v10.87h2.919v-11.38c0-7.098-1.944-9.377-8.001-9.377m22.237 18.585c-4.643 0-5.986-1.783-5.986-7.95 0-5.936.865-7.912 5.986-7.912 4.521 0 6.026 1.144 6.026 7.912 0 6.167-1.352 7.95-6.026 7.95m0-18.584c-6.692 0-9.18 2.86-9.18 10.555 0 7.838 2.488 10.751 9.18 10.751 6.72 0 9.22-2.913 9.22-10.751 0-7.694-2.5-10.555-9.22-10.555m21.621 8.998c-3.44-.227-4.78-1.035-4.78-2.882 0-2.903 1.507-3.393 4.886-3.393 1.756 0 3.846.406 5.59 1.087l.176.069.993-2.797-.188-.053c-2.363-.663-4.696-1.029-6.571-1.029-5.636 0-8.04 1.9-8.04 6.351 0 2.559.92 4.994 7.592 5.486 3.955.326 4.705 1.403 4.705 3.276 0 2.985-1.513 3.51-4.69 3.51-2.078 0-4.958-.514-6.289-1.123l-.185-.085-.906 2.763.171.058c1.971.67 5.214 1.07 7.21 1.07 5.644 0 7.843-1.802 7.843-6.43 0-3.758-2.248-5.516-7.517-5.878" stroke="#575756" fill="#575756"/><path d="M38.458 13.761c-.863 0-2.81.392-4.205 3.61l-3.685 8.507-3.5-8.267c-1.342-3.17-3.213-3.644-4.21-3.644h-.05c-1.007.016-2.886.528-4.142 3.775L8.035 45.21a26.128 26.128 0 0 1-3.46-13.004c0-14.456 11.76-26.217 26.217-26.217 14.456 0 26.218 11.761 26.218 26.217a26.1 26.1 0 0 1-3.67 13.353l-10.667-28c-1.24-3.251-3.118-3.775-4.123-3.797a2.443 2.443 0 0 0-.092-.002m-11.57 29.606l3.642-8.406 3.543 8.37c.462 1.09.473 2.059.031 2.725-.441.666-1.337 1.033-2.521 1.033h-2.25c-1.181 0-2.07-.362-2.502-1.02-.433-.659-.412-1.619.057-2.702m3.904 15.057c-7.898 0-15.285-3.516-20.3-9.655L22 19.032c.362-.936.7-1.307.856-1.439.17.134.535.504.92 1.412l4.828 11.406-4.996 11.535c-.95 2.193-.865 4.41.234 6.085 1.1 1.674 3.1 2.634 5.491 2.634h2.25c2.387 0 4.392-.96 5.502-2.635 1.11-1.674 1.211-3.895.28-6.093l-4.871-11.51 5.04-11.634c.387-.893.751-1.293.923-1.423.145.115.499.477.874 1.463l11.52 30.236c-5.007 5.948-12.306 9.355-20.059 9.355m0-56.01C14.364 2.415 1 15.78 1 32.208 1 48.635 14.364 62 30.792 62s29.793-13.365 29.793-29.793c0-16.427-13.365-29.792-29.793-29.792" stroke="#0AAAC0" fill="#05AAC0"/></g></svg>